<?xml version="1.0" encoding="utf-8"?>
<!-- Generator: Adobe Illustrator 16.0.0, SVG Export Plug-In . SVG Version: 6.00 Build 0)  -->
<!DOCTYPE svg PUBLIC "-//W3C//DTD SVG 1.1//EN" "http://www.w3.org/Graphics/SVG/1.1/DTD/svg11.dtd">
<svg version="1.1" id="圖層_1" xmlns="http://www.w3.org/2000/svg" xmlns:xlink="http://www.w3.org/1999/xlink" x="0px" y="0px"
	 width="141.696px" height="141.767px" viewBox="0 0 141.696 141.767" enable-background="new 0 0 141.696 141.767"
	 xml:space="preserve">
<g>
	<path fill-rule="evenodd" clip-rule="evenodd" fill="none" d="M141.696,10.656v120.456c0,5.832-4.751,10.655-10.584,10.655H10.656
		C4.753,141.767,0,136.944,0,131.112V10.656C0,4.824,4.753,0,10.656,0h120.456C136.945,0,141.696,4.824,141.696,10.656z"/>
	<g>
		<path d="M136.831,128.16c0.214,0.761,0.069-0.256,0.044-1.188L136.831,128.16z"/>
		<path d="M136.875,126.972l0.033-0.842C136.872,126.354,136.867,126.653,136.875,126.972z"/>
		<path d="M137.023,119.137c0.168,1.802-0.064,3.949,0.195,5.075C137.373,122.396,137.309,119.587,137.023,119.137z"/>
		<polygon points="136.855,121.843 136.997,122.07 136.776,120.49 		"/>
		<polygon points="136.727,122.972 136.778,122.746 136.634,120.275 		"/>
		<path d="M137.125,113.043l0.039,1.806c-0.192,1.692-0.259-1.117-0.389,0.014c0.001,2.254,0.402,0.776,0.338,3.596
			c0.183-0.227-0.001-4.513,0.285-4.059C137.487,112.031,137.229,114.285,137.125,113.043z"/>
		<path d="M131.396,7.188c-0.068-0.044-0.126-0.082-0.188-0.121C131.274,7.133,131.346,7.192,131.396,7.188z"/>
		<path d="M102.234,6.643c-0.409-0.029-0.818-0.047-1.218-0.059c0.122,0.029,0.276,0.056,0.481,0.077L102.234,6.643z"/>
		<path d="M136.121,22.958c-0.025,0.429-0.049,0.82-0.07,1.177C136.092,23.912,136.119,23.562,136.121,22.958z"/>
		<path d="M4.905,53.377c-0.021-0.072-0.047-0.132-0.083-0.155c-0.001,0.012-0.004,0.033-0.006,0.054l0.076,0.328L4.905,53.377z"/>
		<path d="M68.888,7.084c-0.471,0.004-0.933,0.011-1.343,0.03C68.325,7.119,68.703,7.107,68.888,7.084z"/>
		<path d="M136.145,33.703c0.001-0.164,0.001-0.307,0.001-0.449c-0.008,0.143-0.017,0.336-0.028,0.554l0.027-0.083
			C136.145,33.715,136.145,33.715,136.145,33.703z"/>
		<path d="M111.958,7.027c-0.403-0.02-0.769-0.036-1.079-0.035C111.248,7.017,111.607,7.025,111.958,7.027z"/>
		<path d="M137.443,85.427c0.027-0.51,0.009-0.935-0.025-1.313C137.376,84.441,137.368,84.855,137.443,85.427z"/>
		<path d="M137.414,74.774l0.002,0.063C137.45,74.774,137.442,74.744,137.414,74.774z"/>
		<path d="M137.441,67.965c0.001,0.042,0.005,0.08,0.006,0.121C137.472,68.007,137.478,67.965,137.441,67.965z"/>
		<path d="M137.418,84.115c0.113-0.882,0.475-1.146,0.078-2.284l-0.054,0.228c0.091-0.684-0.065-1.693-0.077-2.484
			c-0.038,0.08-0.069,0.174-0.096,0.287c-0.011,0.398-0.023,0.924-0.042,1.734C137.145,82.557,137.333,83.183,137.418,84.115z"/>
		<path d="M131.52,7.166C131.567,7.264,132.138,7.524,131.52,7.166L131.52,7.166z"/>
		<path d="M135.943,13.625c-0.016-0.272,0.002-0.546-0.053-0.823C135.93,13.064,135.906,13.327,135.943,13.625z"/>
		<path d="M135.854,48.203c0.005-0.059,0.01-0.108,0.015-0.164C135.828,47.989,135.833,48.122,135.854,48.203z"/>
		<path d="M135.755,12.054c0.079,0.243,0.092,0.499,0.136,0.748C135.859,12.57,135.861,12.321,135.755,12.054z"/>
		<path d="M136.068,37.814c0.004-0.05,0.007-0.1,0.011-0.142C136.072,37.702,136.068,37.756,136.068,37.814z"/>
		<path d="M67.969,138.39c-0.698,0.034-1.105-0.07-1.765-0.102c-1.475,0.263,3.044,0.006,0.904,0.24
			c0.653-0.002,1.17-0.037,1.649-0.074l-0.933-0.248C66.535,138.303,68.688,138.291,67.969,138.39z"/>
		<path d="M4.389,62.022l0.023-0.297c-0.113,0.204-0.149,0.019-0.209,1.16c0.172,0.972,0.431-0.543,0.621,1.157
			c-0.02-0.328-0.011-0.819,0.014-1.282C4.684,63.458,4.522,62.769,4.389,62.022z"/>
		<path d="M4.838,62.76c0.004-0.02,0.008-0.029,0.013-0.049c0.022-0.073,0.044-0.156,0.061-0.249
			c0.002-0.245,0.011-0.483,0.027-0.677C4.896,61.971,4.858,62.341,4.838,62.76z"/>
		<path d="M44.875,138.281c-0.287-0.01-0.542-0.018-0.777-0.023C44.477,138.304,44.703,138.303,44.875,138.281z"/>
		<path d="M71.03,3.929c0.337-0.028,0.667-0.056,0.933-0.078C71.45,3.864,71.193,3.894,71.03,3.929z"/>
		<path d="M4.634,45.585c0.021-0.26,0.031-0.531,0.04-0.823c-0.004-0.172-0.008-0.315-0.012-0.521L4.634,45.585z"/>
		<path d="M7.021,100.366c-0.282-0.587,0.022,0.45-0.141,1.619l0.15,1.087C7.075,102.076,7.029,101.156,7.021,100.366z"/>
		<path d="M68.829,138.473c0-0.009,0-0.017,0.013-0.025c-0.029,0.003-0.049,0.004-0.084,0.007L68.829,138.473z"/>
		<path d="M7.977,131.502c0.065,0.134,0.124,0.252,0.187,0.378C8.134,131.8,8.078,131.679,7.977,131.502z"/>
		<path d="M4.958,56.312l0.018-4.143l-0.07,1.209C5.045,53.953,4.788,55.737,4.958,56.312z"/>
		<path d="M7.186,82.695l0.172-0.369c-0.365-4.121,0.156-8.851-0.354-12.131c0.601-5.021-0.539-3.293,0-7.896l-0.087,0.155
			C7.02,47.315,7.333,31.258,7.043,17.107l0.12,0.03L7.182,15l0.008-1.067c0.016-0.321,0.025-0.57,0.055-0.855
			c0.152-1.098,0.544-2.168,1.204-3.063c0.653-0.895,1.512-1.65,2.51-2.121c0.487-0.261,1.021-0.406,1.551-0.541
			c0.271-0.036,0.541-0.097,0.815-0.111c0.28-0.009,0.515-0.036,0.902-0.027C19.869,7.209,25.49,7.205,31.104,7.2
			c11.229-0.026,22.434-0.065,33.734-0.018c2.108-0.111,0.837-0.376,2.655-0.511c0.789,0.01,2.573-0.003,2.583,0.144
			c-1.529,0.082-0.668,0.212-1.189,0.27c2.542-0.015,5.825,0.156,8.091-0.024L75.08,6.869c0.882-0.08,2.268-0.026,3.065-0.017
			c-0.337,0.098,0.823,0.306,0.134,0.353c4.787-0.475,3.734,0.204,7.763,0.017c0.804-0.406,5.847-0.738,9.169-1.027l1.743,0.104
			c-2.317-0.002,0.043,0.296-2.831,0.276c2.4,0.118,4.625-0.057,6.894,0.008c-0.441-0.102-0.328-0.235,0.584-0.281
			c1.394,0.056,1.517,0.259,3.107,0.279l-1.57,0.128c1.059,0.152,1.97-0.049,2.952-0.074c0.319,0.169,2.698,0.201,2.277,0.389
			c2.143-0.231,2.902-0.101,5.209-0.248c-2.399-0.179,0.616-0.223,0.348-0.364l-2.705,0.066c3.814,0.113-1.239,0.031-0.953,0.319
			c-1.794-0.133,2.461-0.476-0.543-0.431c3.589-0.147,4.349-0.018,8.018-0.257c-2.215,0.055,0.423-0.188-0.768-0.276
			c2.811-0.011,0.698,0.101,1.566,0.287c1.529-0.008,2.092,0.156,3.5-0.058c2.48,0.087-0.372,0.217,0.882,0.334
			c-0.917,0.2-6.901-0.245-6.225,0.39c-1.294,0.007-2.872,0.25-4.738,0.238c1.628,0.083,3.956,0.292,5.97,0.147l0.101-0.358
			c1.527-0.009,1.843-0.252,2.944-0.22c-0.585,0.103,0.47,0.254,1.701,0.225c-0.35-0.051-0.841-0.039-0.707-0.102
			c2.276-0.027,2.592-0.271,5.303-0.338c-2.236-0.094-2.698-0.2-4.79-0.356c0.563-0.251,1.475-0.037,2.706-0.067
			c-0.186,0.034-0.442,0.042-0.081,0.091l1.312-0.121c2.779,0.112-0.326,0.355,1.927,0.494c0.687,0.128,1.145,0.175,1.574,0.241
			c0.429,0.057,0.826,0.139,1.291,0.405c-0.054-0.05-0.107-0.111-0.162-0.145c0.216,0.098,0.362,0.186,0.474,0.244
			c-0.006-0.008-0.012-0.017-0.009-0.023c1.219,0.515,2.173,1.588,2.554,1.751c0.04,0.15,0.722,0.916,0.977,1.287
			c0.099,0.163,0.232,0.382,0.385,0.634c0.115,0.271,0.291,0.566,0.377,0.905c0.236,0.659,0.276,1.426,0.147,1.989l-0.007-0.084
			c-0.013,1.802-0.123,3.268-0.219,2.861l-0.076,2.974l-0.244-0.319c0.066,2.708,0.208,2.439,0.461,4.297
			c-0.145,1.941-0.027,5.334,0.063,6.616c-0.01,0.214-0.011,0.541,0.003,1.079l0.096-1.13c-0.01,2.114,0.118,1.857,0.119,3.252
			c0.022-0.29,0.037-0.331-0.001,0.449c-0.006,0.236-0.011,0.492-0.019,0.801c-0.025-0.07-0.021-0.383-0.009-0.696l-0.082,0.255
			c-0.26,1.691,0.147,2.593,0.057,4.399c-0.009-0.173-0.025-0.463-0.023-0.647c-0.066,1.016-0.412,2.474-0.201,2.895
			c-0.027,0.235,0.017,0.592,0.069,0.941l-0.038,0.748c0.016-0.306,0.027-0.542,0.038-0.737c0.069,0.464,0.156,0.905,0.104,0.964
			l-0.044,2.596c-0.034,0.492-0.005,1.16,0.029,1.701l-0.102,0.441c0.017,0.946-0.045,0.954-0.071,0.841
			c-0.353,3.284,0.18,5.078-0.125,8.627c0.169,0.677,0.246-0.79,0.336-0.902c0.131,0.554,0.247,2.583,0.34,3.599
			c-0.234,1.58-0.441,6.427-0.778,5.649c-0.025,2.924,0.207-0.912,0.324,0.552l-0.013,0.336c0.039-1.01,0.154-1.8,0.283-2.368
			c0.184-0.222,0.236,2.361,0.184,3.151l-0.26-0.554c0.092,2.697,0.48,2.134,0.739,3.813c-0.103,2.147-0.338,0.911-0.569,1.365
			l0.064,2.256h-0.193c0.052,1.465,0.232,1.807,0.156,3.836c-0.184-1.467-0.182,3.044-0.428,1.016
			c-0.064,1.125,0.312,1.453,0.051,2.028c0.209,0.782,0.104-1.012,0.169-1.581c0.3-0.46,0.144,2.476,0.222,3.828
			c-0.155,0.113-0.182-0.902-0.285,0.689c0.117,0.326,0.207,1.34,0.064,2.243c0.195,0,0.04,1.806,0.028,2.708
			c0.037-1.016,0.18-2.482,0.349-1.818c0.077,0.789,0.117,1.471,0.091,3.271l0.09-1.24c0.286,1.573-0.205,2.598-0.114,4.739
			c-0.117-0.902-0.117-1.468-0.261-2.255c0.092,1.013,0.234,2.932,0.324,4.51l-0.283,1.807c0.143,0.224-0.013,2.029,0.182,2.029
			c-0.131,2.248-0.234-1.806-0.377-2.029c-0.128,2.819,0.324,2.257,0.027,4.961l-0.182-0.898c-0.013,0.898,0.092,2.705,0,2.818
			c0.065,0,0.04-0.453,0.04-1.016c0.389,0.554,0.271,4.162,0.674,3.826l0.025-1.243c0.078,1.905,0.351,3.264,0.21,4.729
			c-0.13,1.127-0.272-0.79-0.376-1.458c-0.027,1.795,0.439,1.458,0.401,3.602c0.064-1.127,0.208-0.912,0.312-0.236
			c0.025-1.239,0.102-3.827-0.066-3.372l-0.039,0.448c-0.104-0.113-0.143-0.789-0.195-1.125c0-1.695,0.182-0.79,0.26-1.129
			c0.063-2.819-0.401-0.23-0.389-2.811l0.078-0.337c-0.104-1.242-0.118-3.159-0.364-3.499c0.259-1.129-0.104-2.924,0.051-4.162
			c0.57-0.235-0.038,4.389,0.273,5.855c0.117-1.354,0.271,0.775,0.401,1.342l-0.246-4.273c0.078-0.342,0.362-1.593,0.154-2.369
			l-0.013,0.336c-0.065-1.695-0.299-1.238-0.221-2.705c0.052-0.227,0.143,0.223,0.182,0.336c0.052-1.353-0.13-1.125-0.182-2.029
			c0.051-1.352,0.233,0.677,0.297-0.452c-0.221-1.567,0.053-2.479,0.038-3.838c-0.322,0.578-0.441-5.399-0.726-2.468l-0.221-3.26
			c0.168-1.017,0.453,2.243,0.726,1.341l-0.012,2.596c0.402-0.429-0.264-5.437,0.188-7.157c0.018-1.387-0.04-1.047,0.16-3.672
			l-0.359,0.45c0.082-1.361,0.279-1.802,0.344-1.865c-0.022-0.798-0.014-1.517,0.002-2.257c0.053,0.195,0.101,0.471,0.12,0.956
			c0.2-1.026,0.125-1.323,0.019-1.681c-0.091-0.554-0.078-1.395-0.075-2.247l0.134,0.768c-0.03-0.521-0.068-1.159-0.134-1.217
			c-0.001-0.354-0.009-0.689-0.032-1.01c-0.063,0.228-0.272,0.791-0.365,2.011c0.142-3.156,0.063-5.63,0.36-8.336
			c0.104,0.101,0.233,1.23,0.247,0.891c0.053-1.353-0.129-2.82-0.285-2.697c-0.006-0.307-0.012-0.541-0.016-0.747
			c0.09-0.258,0.186-0.576,0.201-1.218c0.032-0.147,0.061-0.391,0.073-0.854c-0.286-0.452-0.143-3.044-0.272-3.607
			c-0.03,0.611-0.028,1.36-0.019,2.12c-0.19-1.088-0.408-2.061-0.255-2.902c0.183,2.021,0.297-2.154,0.376,0.89
			c0.361-2.141-0.259-1.116-0.131-3.381l0.143-1.465c0.208,0.223,0.104,2.37,0.183,2.029l-0.026-1.017
			c0.155,1.017,0.053,4.852,0.286,7.212l0.115-4.738c-0.246-5.97,0.038-13.416-0.417-18.481l0.005,0.215
			c-0.021-0.088-0.059-0.131-0.138-0.203l0.052-0.228l-0.156-1.002c0.194-1.14,0.233-3.272,0.388-5.088
			c-0.129,1.14-0.129,1.14-0.284,1.252c-0.208-0.227-0.297-0.402-0.22-2.096c0.147-0.018,0.145,1.027,0.261-0.222
			c-0.072,0.645-0.176,0.07-0.194-0.668c0.096-0.954,0.116-2.542,0.264-2.563c0.041,0.441-0.01,0.797-0.032,1.096
			c0.039,0.441,0.133-1.793,0.254-0.483l-0.043-1.722c0.124-1.005,0.195,0.668,0.274,0.268c-0.101-2.864-0.44-4.33-0.541-6.922
			c0.079,0.122,0.408,0.15,0.313,0.122c0.025-0.498,0.016-1.015-0.014-1.544c-0.041-0.555-0.112-1.2-0.278-1.789
			c-0.314-1.203-0.885-2.337-1.563-3.366c0.28,0.253,0.721,1.082,1.001,1.786c-1.268-3.651-4.609-5.996-8.065-6.297
			c-0.911-0.078-1.604-0.055-2.398-0.084c-0.773-0.021-1.547-0.041-2.325-0.062c-1.556-0.061-3.132-0.122-4.761-0.185l-1.693,0.338
			l-1.7-0.225c-6.853-0.216-12.11,0.002-18.625,0.104c-2.029,0.021-1.217-0.235-2.173-0.331c-4.452-0.039-5.539,0.343-9.781,0.419
			c0.584-0.104,1.579-0.395-0.248-0.409C84.883,4.006,84.66,4.16,83.507,4.1l0.586-0.104c-1.054-0.152-2.072-0.008-4.255-0.073
			c-3.855,0.006-7.535,0.246-10.707,0.62c-3.41-0.034,0.354-0.364-0.293-0.438c2.404,0.124,1.671-0.06,2.192-0.176
			c-1.272,0.096-2.811,0.154-3.466-0.087c-1.772,0.015-2.574,0.003-4.326,0.166c0.883-0.082,1.638,0.049,0.812,0.158
			c-1.449-0.083-5.142,0.008-4.937-0.293c-8.396,0.003-17.792,0.006-26.785,0.009c-1.516,0.156,1.151,0.06,0.317,0.17
			c-2.204,0.203-1.741-0.105-3.507,0.056l0.729-0.165c-2.625-0.025-5.414,0.28-7.958,0.432c0.422-0.187-2.089-0.155,0.022-0.267
			C20.688,4.14,19.18,3.3,18.219,3.472l1.4,0.782c-0.068,0.077-1.813,0.03-1.637,0.081C16.896,4.181,15.562,4,14.811,4
			c-0.367-0.198,1.522-0.155,2.557-0.151c0.154-0.33-3.487-0.211-1.988-0.514c-2.217,0.055,0.316,0.169-1.01,0.291
			c0,0-0.121-0.004-0.302-0.011c-0.162-0.012-0.471-0.004-0.759,0.002c-0.292,0.002-0.583,0.014-0.801,0.049
			c-0.219,0.026-0.363,0.044-0.363,0.044s0.45-0.062,0.9-0.059c0.445,0.003,0.908,0.009,0.884,0.015
			c-0.941,0.068-1.59,0.236-2.271,0.444c-0.685,0.222-1.438,0.448-2.6,0.961c0,0-0.13,0.102-0.325,0.255
			c-0.195,0.151-0.452,0.354-0.68,0.588C7.816,6.14,7.588,6.365,7.437,6.556C7.279,6.739,7.176,6.861,7.176,6.861
			C6.795,6.84,5.811,8.166,5.188,9.328C5.167,9.32,5.465,8.522,5.465,8.522c-0.908,1.542-1.111,2.219-1.481,3.294
			c0.008-1.063,0.517-1.561,0.481-2.046c0,0-0.06,0.112-0.129,0.289c-0.073,0.177-0.169,0.412-0.265,0.647
			c-0.165,0.481-0.301,0.975-0.301,0.975c0.14,0.031,0.036,1.288,0.385-0.088c-0.047,0.458-0.018,0.872-0.021,1.286
			c0.042,0.404,0.055,0.885,0.109,1.307c0.089,0.896,0.141,2.085,0.129,4.039C4.121,19.989,4.15,16.326,3.9,17.059
			c-0.107,4.056,0.656,4.958,0.625,7.33c-0.104,3.023,0.13,2.85,0.146,5.916C4.5,29.33,4.487,32.447,4.324,33.01L4.146,31.8
			c0.055,0.932-0.013,1.827-0.139,1.551c0.233-0.173,0.218,3.976,0.328,6.089l0.198-0.369c0.066,1.652,0.191,3.94,0.141,5.691
			c0.063,2.604,0.239,2.012,0.455,4.02c-0.18,1.109-0.391,0.987-0.608,0.618c0.102-0.698,0.043-1.878,0.104-3.025
			c-0.171-3.293-0.589-5.854-0.492-9.138c-0.481-1.425,0.055,2.216-0.113,3.812c-0.029-0.047-0.039-0.163-0.043-0.285
			c-0.001,0.143-0.004,0.268-0.014,0.4c-0.061-1.178-0.137-3.097-0.381-3.416c0.048,1.97,0.479,1.428,0.272,3.876
			c0.135,1.815-0.243,3.293-0.276,4.39c0.18,1.209,0.564,1.26,0.49,4.234l-0.27-1.302c-0.006,3.365,0.395,1.579,0.383,4.695
			c0.031-1.096,0.264,1.059,0.271-1.024c0.144,1.024,0.17,3.293,0.093,4.985c0.04,0.441,0.092,0.092,0.184,0.173
			c0.188-1.874-0.184-2.961,0.087-4.5l-0.291-1.302c0.105-1.742,0.339-1.919,0.454-0.853c-0.013-0.491-0.054-0.921-0.003-1.28
			c0.437-0.297-0.155,2.092,0.215,2.695l-0.031-1.23c0.284-0.533,0.249,2.874,0.23,4.461c-0.133,1.794-0.183,3.437-0.387,3.559
			l-0.089-2.41c-0.164,1.25,0.097,3.078,0.089,4.48c-0.028,0.092-0.05,0.227-0.065,0.391c0.02-0.072,0.038-0.113,0.058-0.113
			c-0.01,0.297-0.035,0.563-0.085,0.79c-0.011,1.23,0.114,3.037,0.05,4.183l0.184-0.142l-0.104-0.155
			c0.008-1.127,0.119-2.655,0.257-1.802c0.127,2.541-0.227,3.053-0.385,3.658c-0.282-0.584,0.002-2.48-0.095-3.772
			c-0.276,0.778-0.029,2.584-0.213,5.209c-0.305-1.046,0.006-3.044-0.276-3.621c-0.053,2.115,0.164,2.667,0.087,4.893
			c-0.141-0.284-0.154-2.452-0.336-2.31l-0.088,1.428c-0.017-3.507-0.38,0.614-0.453-2.121c-0.125,1.291,0.249,1.802,0.055,3.638
			c0.134-0.512,0.375-1.978,0.494-0.222l-0.089,1.986c-0.147,0.831-0.324-2.071-0.449-0.778l0.103,2.079
			c0.092-0.07,0.139-1.066,0.262-0.44c-0.097,1.201,0.353,1.97,0.486,3.386c-0.006,1.127-0.025,2.021-0.131,2.42
			c0.269,2.84,0.26,6.438,0.515,9.057c-0.183-1.786-0.312,0.07-0.448,1.138c-0.039-2.055-0.323-2.069-0.507-1.928
			c0.03,1.251,0.324,2.07,0.419,1.438c-0.115,2.09,0.198,1.441,0.007,3.277c-0.1,1.189-0.282-0.595-0.389-0.185
			c-0.015,2.257,0.347,0.614,0.279,3.066c-0.038-0.135-0.05-0.358-0.104-0.164c-0.06,1.323,0.075,2.748,0.217,3.032
			c-0.372,1.408,0.04,3.971-0.321,3.693c0.096,3.201,0.196-0.477,0.323,0.155c0.16,1.31,0.028,3.733-0.028,4.49
			c-0.008-0.79-0.107-1.515-0.051-2.276l-0.252,0.676c-0.179,3.982,0.568,2.525,0.351,6.371c-0.13-1.981-0.19-0.658-0.367-1.642
			c0.063,0.597-0.008,3.608,0.185,1.786c-0.021,1.445-0.066,2.447-0.111,3.443c0.097,1.283,0.165,2.676,0.33,3.423
			c-0.026,2.022-0.204,3.521-0.314,4.486c0.046,1.063,0.061,2.106,0.061,3.144l-0.011,1.551c0.009,0.551,0.019,1.182,0.123,1.765
			c0.355,2.366,1.65,4.675,3.768,6.167l-0.294-0.242c0.78,0.627,1.139,0.795,1.225,0.816c0.089,0.02-0.073-0.129-0.227-0.275
			c-0.158-0.14-0.286-0.307-0.186-0.27c0.105,0.025,0.438,0.264,1.336,0.711c-0.307,0.01,0.199,0.365,1.001,0.668
			c0.798,0.303,1.876,0.527,2.547,0.613c0.679,0.064,1.136,0.047,1.679,0.061c0.521,0,1.026-0.001,1.521-0.002
			c0.988-0.021,1.936-0.041,2.872-0.062c1.871-0.05,3.7-0.095,5.74,0.009c-0.033,0.064-0.298,0.142-1.087,0.15
			c3.116,0.096,5.629,0.034,8.438,0.051l-0.122,0.038c4.504,0.249,8.593-0.051,13.257-0.125c-0.378,0.038-0.477,0.155-0.769,0.196
			c2.348,0.068,6.104,0.114,7.754-0.167c2.788,0.303,1.847-0.092,5.435,0.202c0.207,0.054-0.356,0.051-0.596,0.062
			c1.765,0.102,3.016,0.07,4.8,0.106c3.937-0.195,4.91-0.592,9.486-0.473c0.233,0.418-2.812,0.104-2.912,0.437
			c0.91-0.074,1.701-0.159,2.961-0.06c-0.756,0.163-0.164,0.102-0.686,0.255c0.482,0.056,1.453-0.054,2.302-0.172
			c0.423-0.063,0.817-0.121,1.104-0.163c0.286-0.045,0.465-0.071,0.46-0.062c0.053-0.081-0.278-0.124-1.182-0.112
			c1.067-0.258,4.494-0.021,6.711-0.125c-0.721-0.008-2.985-0.09-2.137-0.287c2.975,0.088,3.962-0.313,6.041-0.48
			c2.737,0.189-2.021,0.352-1.505,0.645c0.459,0.107,1.559,0.342,0.409,0.456c2.46,0.063,4.233-0.188,6.429-0.252l-0.061,0.083
			c3.066-0.035,6.338-0.396,8.912-0.23l-1.364-0.094c0.503-0.051,2.049-0.026,2.901-0.195c-0.093,0.139,1.907,0.262,1.089,0.375
			c1.363-0.44,6.972-0.268,8.501-0.686c0.818,0.111,0.163,0.289-0.085,0.391c-1.936-0.039-2.593-0.126-3.608,0.05
			c1.61-0.006,2.789,0.107,2.541,0.208c1.613-0.273,5.449-0.382,6.259-0.657c1.177,0.138,2.299,0.212,1.887,0.44
			c4.938-0.143-2.44-0.705,3.137-0.702c2.542,0.222-2.482,0.3,1.025,0.376l-0.646,0.036c2.532,0.589,1.775-0.421,4.646-0.401
			c0.383,0.322-1.999,0.229-0.021,0.459c1.313-0.04,2.257-0.18,3.2-0.295c0.992-0.134,1.979-0.314,3.283-0.746l-0.363,0.277
			c0.85-0.275,2.062-0.846,3.063-1.707c1.018-0.842,1.796-1.934,2.192-2.731c0.095-0.047-0.021,0.187-0.192,0.485
			c0.45-0.702,0.642-1.178,0.746-1.489c0.106-0.313,0.149-0.462,0.165-0.6c0.021-0.278,0.139-0.442,0.404-1.79l-0.116-0.787
			c-0.074,0.678-0.215,1.658-0.552,2.627c-0.332,0.969-0.835,1.903-1.264,2.639c0.422-0.738-0.046-0.24-0.591,0.271
			c-0.569,0.503-1.279,0.938-1.076,0.576l-0.159,0.293c-0.867,0.58-1.87,1.056-2.969,1.329c-1.116,0.3-2.23,0.271-3.533,0.202
			c-2.547-0.079-5.232-0.162-7.897-0.244c-3.364,0.328-5.725-0.132-9.333,0.096c-0.563,0.374-0.676,0.074-3.774,0.15
			c1.641-0.047,0.195-0.285-0.843-0.336c-0.604,0.097-1.341,0.131-2.079,0.166c-0.625-0.129-4.532-0.431-5.961-0.176
			c-1.885-0.121,0.441-0.121,0.853-0.197c-0.767-0.193-1.535,0.15-2.162,0.021c0,0,0.029-0.041,0.227-0.061
			c-2.885,0.016-4.607-0.082-7.61-0.129c-0.248,0.367-2.953,0.139-4.288,0.27c0.434-0.119-1.69-0.138-2.542-0.207l-1.608,0.273
			c-1.592,0.232-2.215-0.164-4.273-0.039l0.496,0.066c-1.507,0.11-5.464-0.11-6.942-0.309c-13.895,0.72-21.494-0.403-36.136-0.209
			c-0.953,0.111,0.697,0.188-0.051,0.352c-1.486,0.042-1.825,0.026-3.179,0.031c1.196,0.1,1.004-0.023,0.852,0.079l2.073-0.104
			c0.102,0.027-0.127,0.039,0.07,0.092c0.696-0.035,1.517-0.108,2.41-0.089c-1.283,0.095-1.641,0.366-3.397,0.264
			c0.134-0.038,0.361-0.049,0.823-0.073c-1.449-0.021-1.521,0.109-2.609,0.037c-1.33-0.061-1.004,0.023-1.176-0.095l-4.134-0.146
			c-2.063,0.325-4.603,0.016-5.271-0.015c0.45-0.243,2.738-0.074,3.754-0.313l-1.49-0.178l-0.089,0.194l-2.122-0.054l0.119-0.037
			c-0.252,0.076-0.511,0.151-1.053,0.085c-0.094-0.027-0.3-0.08-0.064-0.092l-1.516,0.107c0.882-0.202-1.33-0.061-1.109-0.293
			c-1.216-0.033-2.324-0.006-2.947-0.049c-0.709-0.066-1.313-0.21-1.888-0.406c-1.108-0.436-2.204-1.107-3.07-2.65
			c0.103,0.273-0.116,0.093-0.438-0.297c-0.303-0.397-0.652-1.041-0.757-1.597c-0.125-0.638-0.035-0.809,0.093-0.427
			c0,0-0.084-0.35-0.167-0.7c-0.048-0.362-0.095-0.726-0.095-0.726c0.362-2.195,0.129-4.339,0.252-7.557l0.104,0.167
			c-0.121-1.192-0.218-2.477-0.182-4.269l0.206,0.326c0.144-2.189-0.431-1.672-0.3-4.092c-0.221,0.014-0.333,1.537-0.542,1.773
			c0.225-0.57,0.257-3.168,0.099-2.563c-0.09-2.411,0.005-1.672,0.059-1.878l-0.135-1.415c0.01-1.693,0.289-0.542,0.415,0.084
			c-0.237-1.58-0.07-3.301-0.032-5.095l0.099,0.728l0.039-2.36c-0.172-1.538-0.184-3.693-0.094-5.681l0.29,1.373
			c0.15-1.395-0.1-0.717-0.15-1.086c-0.141-2.204,0.057-2.678,0.22-3.842C6.842,89.218,7.621,85.719,7.186,82.695z M135.99,47.362
			l0.043-0.327C136.083,47.773,136.131,48.194,135.99,47.362z M136.072,27.974c0.114,2.335-0.022,1.594-0.104,1.771
			c0.08-2.298-0.014-3.578,0.082-5.611c-0.059,0.327-0.137,0.39-0.184,0.495c0.013-0.81,0.077-1.621,0.225-1.898
			C136.384,23.735,135.904,28.985,136.072,27.974z M137.507,71.625c-0.02-0.083-0.042-0.175-0.065-0.274c0,0,0,0,0-0.013
			L137.507,71.625z M137.248,60.069c0.064-0.164,0.098-0.45,0.12-0.799C137.291,59.484,137.228,59.69,137.248,60.069z
			 M137.607,37.066c0.121-0.532,0.084-1.743,0.056-2.625C137.65,34.854,137.613,35.593,137.607,37.066z M19.655,4.55
			c0.698-0.047,2.008-0.169,0.812-0.257c-0.575,0.104-1.686-0.076-2.17,0.083c-0.068-0.008-0.078-0.009-0.119-0.014
			C18.875,4.46,19.45,4.543,19.655,4.55z M5.566,62.916c-0.119-0.126-0.249-0.639-0.339-0.309c0.003-0.058,0.006-0.132,0.01-0.195
			c-0.041,0.173-0.074,0.319-0.101,0.185c-0.024,0.555-0.053,1.138-0.018,1.529C5.509,64.313,5.571,65.487,5.566,62.916z"/>
		<path d="M3.967,40.129c0.004,0.264,0.008,0.47,0.01,0.634C3.974,40.591,3.971,40.394,3.967,40.129z"/>
		<path d="M5.12,64.013c0.025,0.05,0.063-0.605,0.107-1.406C5.18,62.769,5.14,63.16,5.12,64.013z"/>
		<path d="M136.191,109.228l-0.039-0.675l-0.115,1.353c0.129,2.256,0.297,2.369,0.492,2.924c-0.182-2.021-0.091-3.26-0.145-5.855
			L136.191,109.228z"/>
		<path d="M137.487,108.083c0.052-0.227,0.183-0.792,0.195-1.13l-0.118-0.336L137.487,108.083z"/>
		<path d="M138.056,81.36l-0.103,2.142C138.056,84.179,138.237,81.695,138.056,81.36z"/>
		<path d="M136.006,90.865l0.131,1.125c0.104-1.011,0.091-2.368-0.052-2.59C136.163,90.751,136.006,89.736,136.006,90.865z"/>
		<path d="M138.081,75.606c-0.234-0.668,0.104-2.144-0.117-2.584C138.029,73.584,137.847,75.501,138.081,75.606z"/>
		<path d="M135.862,77.111c-0.221,0.68-0.026,1.805-0.079,3.161C135.783,79.142,136.018,77.564,135.862,77.111z"/>
		<path d="M137.418,64.122c0.168,0.109,0.156,1.013,0.116,2.028c-0.051-0.34-0.129-0.563-0.155-1.015
			c0.13,1.69,0.104,1.806,0.183,3.158c0.116-1.353,0.192-3.385,0.399-3.167C137.806,64.122,137.572,62.877,137.418,64.122z"/>
		<path d="M135.834,73.849c-0.063,1.13-0.219,1.807-0.205,3.159c0.116-0.234,0.285-0.685,0.259-2.265l0.193,0.563
			C136.225,73.841,135.823,75.882,135.834,73.849z"/>
		<path d="M137.87,57.914l-0.091,0.681c0.157,1.579,0.079,3.607,0.325,4.498C138.092,61.185,137.987,58.816,137.87,57.914z"/>
		<path d="M136.196,68.313l-0.271-0.214c-0.037,1.577,0.092-0.114,0.155,0.45c-0.039,0.45-0.063,1.127-0.012,1.458
			C136.028,68.212,136.288,69.892,136.196,68.313z"/>
		<path d="M135.897,63.135l-0.117-2.02l-0.297,1.579C135.587,65.062,135.652,62.807,135.897,63.135z"/>
		<path d="M136.079,60.651l0.052-0.226l-0.402-3.033C135.897,59.198,135.871,59.309,136.079,60.651z"/>
		<path d="M137.847,23.891c-0.116-0.341-0.261,1.436-0.132,0.676C137.813,24.908,137.963,22.538,137.847,23.891z"/>
		<path d="M135.667,31.14c0.088-0.863-0.078-3.693-0.158-4.931C135.566,27.684,135.509,31.347,135.667,31.14z"/>
		<path d="M135.478,25.704c0.006,0.101,0.019,0.288,0.031,0.505C135.501,25.982,135.492,25.819,135.478,25.704z"/>
		<path d="M101.301,7.148c-0.133,0.004-0.263,0.012-0.376,0.031C101.055,7.168,101.168,7.159,101.301,7.148z"/>
		<path d="M102.545,7.08c0.841,0.039,2.51-0.032,2.798-0.158c-1.322,0.06-2.492,0.096-4.042,0.226
			C101.884,7.134,102.596,7.222,102.545,7.08z"/>
		<path d="M90.579,7.02c0.621-0.075,1.474-0.037,1.26-0.15C91.487,6.82,90.164,6.941,90.579,7.02z"/>
		<path d="M9.352,4.685c-1.27,0.573-1.85,1.177-1.457,1.074c0.604-0.463,0.77-0.53,0.848-0.634C8.833,5.042,8.855,4.947,9.352,4.685
			z"/>
		<path d="M6.613,6.937L6.429,7.014c0,0-0.175,0.146-0.351,0.292c-0.173,0.149-0.33,0.316-0.33,0.316s0.197-0.195,0.424-0.357
			C6.393,7.1,6.613,6.937,6.613,6.937z"/>
		<path d="M3.59,15.309c-0.026-0.059-0.056-0.264-0.073-0.478C3.539,15.28,3.563,15.662,3.59,15.309z"/>
		<path d="M3.506,14.604c0.003,0.07,0.007,0.155,0.011,0.227C3.513,14.759,3.509,14.675,3.506,14.604z"/>
		<path d="M3.561,14.083l-0.092-0.09c0.008,0.129,0.023,0.376,0.037,0.611C3.5,14.39,3.513,14.163,3.561,14.083z"/>
		<path d="M3.561,17.691l0.258-1.514c-0.127-1.573-0.132,1.791-0.408,0.241L3.561,17.691z"/>
		<path d="M3.633,22.963c-0.084,1.445,0.322,3.528,0.018,4.347c0.16,4.092,0.51-0.945,0.626,3.737
			c0.157-4.425-0.59-2.25-0.421-6.177C3.667,26.768,3.705,23.596,3.633,22.963z"/>
		<path d="M4.146,22.266c-0.152-0.234-0.167,1.6-0.063,2.171C4.1,23.904,4.313,22.983,4.146,22.266z"/>
		<polygon points="3.771,30.96 3.651,32.211 3.75,32.54 		"/>
		<path d="M3.709,35.706L3.53,34.488C3.601,34.889,3.586,36.714,3.709,35.706z"/>
		<path d="M3.487,42.313c-0.062,1.146,0.351,2.185,0.261-0.236l-0.016,0.551C3.668,42.487,3.523,43.789,3.487,42.313z"/>
		<path d="M4.133,57.602c0.008-0.79-0.045-1.721-0.129-1.557l0.084,2.162L4.133,57.602z"/>
		<path d="M5.131,57.283c0.25-0.727-0.021-2.028,0.063-3.465C5.146,55.45,5.109,55.255,5.131,57.283z"/>
		<path d="M3.777,60.072c-0.103-0.583-0.036-1.487-0.02-2.029C3.615,58.309,3.651,59.795,3.777,60.072z"/>
		<path d="M3.862,63.521c-0.101,0.706-0.14-0.155-0.208,0.378c-0.112,1.517-0.098,3.108,0.04,3.97
			c0.106-0.4,0.395-0.945,0.521-0.319c-0.088-2.42-0.552-3.658-0.194-4.838L3.585,60.69C3.514,62.625,3.889,62.177,3.862,63.521z"/>
		<path d="M4.69,58.627l-0.146,1.296c0.142-0.259,0.166,0.725,0.213,1.413C5.075,60.997,4.709,59.367,4.69,58.627z"/>
		<polygon points="4.055,76.941 4.129,79.693 4.146,78.797 		"/>
		<polygon points="3.953,78.705 3.861,78.777 4.029,80.88 		"/>
		<polygon points="3.844,81.587 3.858,81.261 3.779,79.642 		"/>
		<path d="M3.783,87.32l0.134-0.504c-0.036-0.697,0.114-2.092-0.066-1.958C3.912,85.462,3.889,86.909,3.783,87.32z"/>
		<path d="M7.191,106.316c-0.088-0.497-0.168-0.199-0.248,0.099l0.229,0.79C7.161,106.97,7.139,106.507,7.191,106.316z"/>
		<path d="M6.82,109.636l0.261,2.041c0.04-2.352-0.165-2.68-0.205-4.729c-0.083,0.869,0.104,2.083,0.032,3.181L6.82,109.636z"/>
		<path d="M22.869,135.404c-0.185,0.168,0.276,0.145-1.24,0.254c2.079-0.105,3.865-0.068,6.247-0.093
			c-0.404-0.106,1.372-0.289,0.457-0.243l-2.653,0.1l0.398-0.113C24.213,135.179,24.859,135.496,22.869,135.404z"/>
		<path d="M129.742,137.037c-0.247,0.113,0.104,0.156,0.461,0.145C131.838,136.667,129.411,137.17,129.742,137.037z"/>
	</g>
	<g>
		<path d="M127.854,118.228l-0.088,1.02C128.188,119.9,127.902,119.027,127.854,118.228z"/>
		<path d="M127.854,118.228l0.063-0.723C127.848,117.697,127.838,117.954,127.854,118.228z"/>
		<path d="M128.531,115.859c0.307-1.559,0.18-3.969-0.386-4.354C128.479,113.05,128.02,114.893,128.531,115.859z"/>
		<polygon points="127.659,112.665 127.814,113.826 128.094,114.021 		"/>
		<path d="M128.347,106.275l0.078,1.55c-0.381,1.452-0.512-0.959-0.769,0.011c0.003,1.936,0.794,0.667,0.669,3.086
			c0.358-0.193-0.003-3.872,0.56-3.482C129.063,105.406,128.553,107.339,128.347,106.275z"/>
		<path d="M13.659,56.682c-0.04-0.062-0.092-0.113-0.164-0.133c-0.003,0.01-0.008,0.028-0.013,0.046l0.152,0.282L13.659,56.682z"/>
		<path d="M128.978,82.577c0.05-0.438,0.015-0.802-0.051-1.126C128.842,81.73,128.826,82.085,128.978,82.577z"/>
		<path d="M128.918,73.435l0.003,0.053C128.988,73.435,128.975,73.408,128.918,73.435z"/>
		<path d="M128.971,67.591c0.005,0.037,0.009,0.068,0.014,0.104C129.033,67.627,129.042,67.591,128.971,67.591z"/>
		<path d="M129.08,79.49l-0.105,0.195c0.18-0.587-0.129-1.453-0.153-2.133c-0.075,0.07-0.135,0.15-0.191,0.247
			c-0.009,0.342-0.03,0.793-0.083,1.488c-0.163,0.826,0.211,1.362,0.38,2.163C129.148,80.693,129.864,80.466,129.08,79.49z"/>
		<path d="M69.208,131.16c-0.6,0.068-0.949-0.138-1.516-0.2c-1.265,0.52,2.612,0.012,0.775,0.475
			c0.562-0.004,1.005-0.073,1.416-0.146l-0.801-0.488C67.978,130.99,69.825,130.964,69.208,131.16z"/>
		<path d="M12.639,64.1l0.044-0.255c-0.224,0.175-0.292,0.017-0.412,0.996c0.341,0.834,0.852-0.466,1.228,0.993
			c-0.037-0.281-0.021-0.703,0.025-1.1C13.219,65.332,12.902,64.741,12.639,64.1z"/>
		<path d="M13.523,64.734c0.008-0.018,0.016-0.025,0.026-0.042c0.046-0.063,0.087-0.134,0.121-0.213
			c0.003-0.21,0.021-0.415,0.055-0.581C13.638,64.056,13.566,64.374,13.523,64.734z"/>
		<path d="M49.389,130.944c-0.244-0.017-0.465-0.032-0.667-0.046C49.047,130.992,49.242,130.99,49.389,130.944z"/>
		<path d="M70.227,11.474c0.289-0.049,0.573-0.102,0.799-0.153C70.586,11.346,70.365,11.405,70.227,11.474z"/>
		<path d="M13.122,49.995c0.04-0.223,0.062-0.455,0.078-0.706c-0.008-0.147-0.014-0.271-0.022-0.446L13.122,49.995z"/>
		<path d="M69.946,131.326c0-0.018,0-0.033,0.009-0.051c-0.025,0.004-0.041,0.008-0.071,0.013L69.946,131.326z"/>
		<path d="M13.763,59.2l0.033-3.555l-0.137,1.037C13.934,57.176,13.429,58.707,13.763,59.2z"/>
		<path d="M97.904,130.357c-0.054,0.029-0.112,0.059-0.157,0.091C97.84,130.417,97.887,130.388,97.904,130.357z"/>
		<path d="M128.237,75.035c0.164-1.168,0.552-1.547,0.681-1.6c-0.046-0.686-0.027-1.302,0.003-1.938
			c0.105,0.167,0.2,0.405,0.237,0.819c0.395-0.88,0.247-1.135,0.038-1.442c-0.18-0.475-0.155-1.197-0.15-1.928l0.267,0.659
			c-0.062-0.447-0.138-0.995-0.267-1.044c-0.002-0.304-0.019-0.592-0.062-0.867c-0.124,0.196-0.538,0.679-0.723,1.726
			c0.28-2.708,0.126-4.831,0.713-7.153c0.205,0.087,0.462,1.056,0.486,0.765c0.104-1.161-0.254-2.42-0.563-2.314
			c-0.021-0.263-0.029-0.464-0.03-0.641c0.176-0.221,0.365-0.494,0.396-1.045c0.064-0.126,0.121-0.335,0.144-0.733
			c-0.564-0.388-0.281-2.612-0.539-3.095c-0.058,0.525-0.053,1.167-0.033,1.819c-0.377-0.934-0.807-1.769-0.504-2.49
			c0.358,1.733,0.586-1.849,0.743,0.763c0.714-1.837-0.513-0.958-0.259-2.902l0.281-1.257c0.411,0.191,0.205,2.034,0.359,1.741
			l-0.052-0.872c0.308,0.872,0.106,4.164,0.565,6.188l0.229-4.065c-0.489-5.123,0.072-11.513-0.827-15.86l0.013,0.185
			c-0.042-0.076-0.118-0.112-0.273-0.174l0.103-0.196l-0.31-0.86c0.384-0.978,0.46-2.808,0.766-4.366
			c-0.254,0.978-0.254,0.978-0.561,1.075c-0.41-0.195-0.585-0.346-0.433-1.799c0.291-0.015,0.283,0.881,0.515-0.19
			c-0.143,0.553-0.349,0.061-0.386-0.573c0.189-0.818,0.229-2.181,0.522-2.199c0.079,0.378-0.021,0.684-0.064,0.94
			c0.077,0.378,0.262-1.539,0.502-0.415l-0.084-1.477c0.245-0.862,0.384,0.573,0.541,0.23c-0.204-2.478-0.856-3.67-1.08-5.986
			c0.161,0.119,0.813,0.143,0.623,0.115c0.091-1.091-0.3-2.257-0.879-3.288c-0.585-1.04-1.353-1.947-2.096-2.811
			c0.177,0.073,0.383,0.298,0.603,0.568c0.197,0.288,0.422,0.611,0.623,0.904c-1.602-3.232-4.705-5.24-7.975-5.679
			c-0.393-0.036-0.855-0.081-1.197-0.098l-0.994-0.05c-0.664-0.04-1.328-0.081-1.996-0.121c-1.335-0.092-2.688-0.209-4.085-0.365
			l-1.453,0.668l-1.459-0.445c-5.88-0.427-10.392,0.005-15.982,0.205c-1.741,0.042-1.045-0.465-1.864-0.655
			c-3.82-0.076-4.753,0.679-8.395,0.829c0.502-0.205,1.355-0.78-0.212-0.808c-0.293,0.193-0.483,0.497-1.474,0.377l0.504-0.206
			c-0.905-0.299-1.777-0.016-3.651-0.144c-3.309,0.013-6.467,0.487-9.188,1.225c-2.926-0.067,0.304-0.72-0.252-0.865
			c2.064,0.245,1.435-0.118,1.883-0.349c-1.093,0.189-2.413,0.305-2.976-0.172c-1.521,0.029-2.208,0.006-3.712,0.328
			c0.757-0.161,1.406,0.097,0.696,0.312c-1.243-0.165-4.411,0.017-4.235-0.58c-7.205,0.116-15.269-0.01-22.986,0.019
			c-1.301,0.307,0.987,0.119,0.273,0.335c-1.892,0.4-1.495-0.208-3.011,0.111l0.625-0.325c-2.253-0.049-4.646,0.553-6.829,0.853
			c0.363-0.369-1.793-0.306,0.021-0.526c-1.067,0.062-2.363-1.597-3.187-1.257l1.202,1.545c-0.059,0.151-1.556,0.058-1.405,0.16
			c-0.467-0.152-0.986-0.317-1.47-0.445c-0.52-0.113-1.188-0.188-1.583-0.119c-0.231-0.157,0.186-0.326,0.828-0.371
			c0.159-0.011,0.333-0.023,0.51-0.035c0.171-0.007,0.281-0.002,0.425-0.002c0.272,0.005,0.54,0.009,0.762,0.013
			c0.033-0.163-0.137-0.271-0.392-0.35c-0.127-0.04-0.274-0.072-0.429-0.101c-0.154-0.029-0.296-0.056-0.536-0.068
			c-0.844-0.063-1.53-0.095-0.623-0.457c-2.732,0.445,0.411,0.253-1.162,0.72c0,0-0.146,0.015-0.362,0.038
			c-0.216,0.041-0.503,0.096-0.79,0.151c-0.289,0.05-0.57,0.13-0.78,0.196c-0.212,0.064-0.353,0.106-0.353,0.106
			s0.443-0.116,0.888-0.195c0.447-0.06,0.895-0.119,0.895-0.119c-0.92,0.314-1.462,0.701-2.066,1.07
			c-0.593,0.397-1.268,0.741-2.359,1.353c0,0-0.104,0.128-0.258,0.321c-0.136,0.204-0.317,0.476-0.5,0.747
			c-0.342,0.55-0.611,1.117-0.611,1.117c-0.272-0.068-0.577,0.281-0.892,0.772c-0.139,0.257-0.291,0.543-0.448,0.835
			c-0.141,0.299-0.279,0.606-0.445,0.883l0.06-0.876c-0.773,1.576-0.983,2.228-1.395,3.289c-0.256-1.105,0.486-1.557,0.236-2.099
			c-0.042-0.022-0.743,1.908-0.688,1.928c0.286,0.06,0.322,1.314,0.712-0.037c0.067,0.471,0.116,0.874,0.21,1.283
			c0.1,0.383,0.17,0.886,0.268,1.226c0.176,0.769,0.276,1.79,0.255,3.466c-0.5,1.515-0.441-1.629-0.934-1
			c-0.212,3.48,1.295,4.255,1.234,6.29c-0.205,2.594,0.257,2.445,0.288,5.077c-0.339-0.836-0.363,1.839-0.686,2.322l-0.354-1.038
			c0.09,0.685,0.005,1.342-0.176,1.369c0.356,0.367,0.348,3.516,0.549,5.188l0.393-0.317c0.13,1.418,0.376,3.381,0.276,4.884
			c0.126,2.235,0.472,1.727,0.899,3.45c-0.354,0.952-0.771,0.847-1.199,0.53c0.2-0.599,0.083-1.612,0.204-2.596
			c-0.338-2.826-1.163-5.023-0.974-7.842c-0.949-1.223,0.111,1.902-0.223,3.271c-0.058-0.041-0.075-0.14-0.085-0.244
			c-0.002,0.122-0.006,0.229-0.027,0.343c-0.117-1.011-0.269-2.658-0.753-2.932c0.098,1.69,0.949,1.225,0.54,3.326
			c0.267,1.558-0.481,2.826-0.548,3.768c0.355,1.038,1.116,1.082,0.97,3.633l-0.532-1.118c-0.01,2.888,0.779,1.355,0.756,4.029
			c0.063-0.94,0.521,0.909,0.537-0.879c0.284,0.879,0.337,2.826,0.184,4.278c0.08,0.378,0.18,0.08,0.361,0.148
			c0.369-1.608-0.36-2.541,0.172-3.861l-0.573-1.118c0.208-1.495,0.669-1.646,0.895-0.731c-0.023-0.421-0.104-0.791-0.003-1.099
			c0.862-0.255-0.307,1.795,0.425,2.313l-0.063-1.056c0.207-0.169,0.328,0.124,0.396,0.626v3.556
			c-0.222,1.395-0.333,2.603-0.707,2.699l-0.174-2.068c-0.325,1.072,0.19,2.641,0.174,3.844c-0.057,0.08-0.098,0.195-0.127,0.335
			c0.036-0.062,0.073-0.097,0.112-0.097c-0.02,0.255-0.07,0.483-0.167,0.678c-0.021,1.056,0.227,2.606,0.097,3.589l0.363-0.122
			l-0.205-0.133c0.016-0.967,0.237-2.278,0.508-1.546c0.253,2.18-0.446,2.62-0.762,3.139c-0.555-0.501,0.007-2.128-0.185-3.237
			c-0.548,0.668-0.058,2.218-0.42,4.471c-0.604-0.898,0.009-2.613-0.547-3.108c-0.104,1.815,0.323,2.289,0.171,4.199
			c-0.278-0.244-0.304-2.104-0.664-1.982l-0.171,1.225c-0.035-3.009-0.751,0.527-0.897-1.82c-0.246,1.108,0.492,1.546,0.109,3.122
			c0.264-0.438,0.742-1.697,0.977-0.19l-0.178,1.705c-0.291,0.713-0.641-1.777-0.887-0.668l0.205,1.785
			c0.179-0.061,0.27-0.916,0.517-0.379c-0.193,1.031,0.693,1.691,0.961,2.905c-0.015,0.967-0.052,1.734-0.262,2.077
			c0.531,2.436,0.513,5.525,1.019,7.771c-0.361-1.533-0.615,0.061-0.887,0.977c-0.076-1.764-0.64-1.777-1.002-1.654
			c0.062,1.073,0.643,1.776,0.831,1.234c-0.231,1.793,0.392,1.236,0.011,2.813c-0.195,1.021-0.556-0.511-0.769-0.158
			c-0.026,1.937,0.685,0.526,0.552,2.631c-0.074-0.115-0.098-0.307-0.202-0.141c-0.118,1.136,0.146,2.357,0.426,2.602
			c-0.734,1.209,0.079,3.407-0.634,3.17c0.191,2.746,0.391-0.409,0.639,0.133c0.316,1.125,0.057,3.205-0.056,3.854
			c-0.017-0.678-0.212-1.301-0.101-1.953l-0.496,0.579c-0.354,3.418,1.122,2.167,0.692,5.468c-0.258-1.7-0.375-0.564-0.726-1.408
			c0.124,0.511-0.016,3.096,0.364,1.531c-0.043,1.241-0.131,2.102-0.222,2.956c0.191,1.101,0.329,2.296,0.652,2.937
			c-0.051,1.736-0.402,3.021-0.619,3.851c0.093,0.933,0.11,1.763,0.125,2.743c0.009,1.156,0.204,2.309,0.546,3.424
			c0.686,2.225,2.177,4.287,4.35,5.551l-0.278-0.241c1.592,1.104,1.329,0.685,1.064,0.345c-0.127-0.178-0.242-0.354-0.123-0.358
			c0.122-0.011,0.451,0.183,1.313,0.579c-0.362,0.173,0.116,0.519,0.879,0.846c0.763,0.314,1.795,0.542,2.437,0.738
			c0.304,0.037,0.624,0.068,0.906,0.089c0.23,0.009,0.457,0.017,0.681,0.024c0.445,0.01,0.881,0.008,1.305-0.002
			c0.85-0.021,1.662-0.074,2.465-0.123c1.605-0.1,3.175-0.186,4.926,0.019c-0.028,0.128-0.256,0.278-0.933,0.294
			c2.675,0.191,4.83,0.07,7.241,0.103l-0.104,0.075c3.864,0.491,7.374-0.101,11.377-0.247c-0.325,0.076-0.409,0.306-0.661,0.387
			c2.016,0.137,5.238,0.227,6.654-0.329c2.394,0.599,1.585-0.182,4.664,0.398c0.177,0.107-0.307,0.1-0.511,0.123
			c1.515,0.201,2.587,0.139,4.118,0.21c3.378-0.387,4.215-1.169,8.142-0.935c0.2,0.828-2.414,0.205-2.501,0.863
			c0.782-0.146,1.462-0.315,2.542-0.119c-0.647,0.323-0.14,0.203-0.588,0.505c0.826,0.218,3.334-0.861,3.318-0.783
			c0.044-0.16-0.239-0.245-1.015-0.224c0.916-0.508,3.856-0.041,5.758-0.246c-0.617-0.015-2.561-0.176-1.832-0.566
			c2.553,0.175,3.399-0.618,5.183-0.947c2.35,0.373-1.733,0.693-1.291,1.272c0.395,0.212,1.337,0.675,0.351,0.9
			c2.112,0.124,3.634-0.372,5.518-0.499l-0.052,0.164c2.632-0.068,5.438-0.783,7.647-0.454l-1.172-0.187
			c0.433-0.1,1.76-0.051,2.49-0.385c-0.068,0.236,1.209,0.451,1.092,0.65c1.381-0.753,5.875-0.47,7.138-1.264
			c0.703,0.219,0.142,0.572-0.072,0.771c-1.661-0.075-2.224-0.248-3.097,0.1c1.382-0.012,2.394,0.212,2.182,0.411
			c1.383-0.541,4.675-0.756,5.37-1.299c1.01,0.271,1.972,0.42,1.619,0.871c4.238-0.281-2.094-1.395,2.692-1.389
			c2.181,0.438-2.131,0.594,0.879,0.742l-0.555,0.072c2.173,1.164,1.523-0.83,3.985-0.793c0.329,0.636-1.714,0.453-0.017,0.908
			c0.559-0.041,1.032-0.121,1.585-0.266c0.517-0.117,0.961-0.35,1.39-0.534c0.854-0.435,1.614-0.878,2.73-1.407
			c0,0-0.206,0.435-0.205,0.434c0.7-0.412,1.704-1.078,2.527-1.954c0.833-0.862,1.47-1.903,1.768-2.662
			c0.147-0.021,0.029,0.188-0.078,0.487c0.764-1.34,0.69-1.725,0.711-1.969c0.001-0.262,0.058-0.412,0.397-1.645l-0.271-0.725
			c-0.129,0.615-0.304,1.494-0.616,2.359c-0.284,0.873-0.654,1.734-0.904,2.475c0.237-0.744-0.252-0.313-0.778,0.11
			c-0.247,0.184-0.51,0.349-0.728,0.444c1.21-1.469,1.939-3.348,1.939-5.389v-5.243l0.063,0.791l0.104-0.194l-0.166-1.228v-9.257
			c0.253,0.48,0.62,0.783,0.57,1.975c0.128-0.967,0.41-0.782,0.614-0.203c0.052-1.063,0.203-3.284-0.131-2.894l-0.076,0.385
			c-0.204-0.097-0.281-0.677-0.385-0.966c0-1.454,0.358-0.678,0.514-0.969c0.125-2.419-0.794-0.197-0.769-2.411l0.153-0.29
			c-0.166-0.861-0.221-2.09-0.491-2.688v-3.879c0.892,0.14-0.176,3.813,0.412,5.018c0.23-1.161,0.538,0.665,0.795,1.151
			l-0.488-3.667c0.153-0.293,0.716-1.367,0.306-2.033l-0.026,0.288c-0.127-1.454-0.589-1.063-0.436-2.321
			c0.104-0.194,0.283,0.191,0.358,0.289c0.104-1.161-0.255-0.967-0.358-1.742c0.101-1.16,0.462,0.581,0.587-0.389
			c-0.435-1.345,0.103-2.127,0.076-3.293c-0.555,0.431-0.803-3.358-1.226-2.739v-1.626c0.248,0.49,0.521,0.985,0.789,0.602
			l-0.023,2.227c0.797-0.367-0.52-4.664,0.368-6.142c0.036-1.189-0.077-0.897,0.319-3.15L128.237,75.035z M128.972,70.485
			l0.13,0.247c-0.043-0.069-0.089-0.149-0.13-0.236C128.972,70.496,128.972,70.496,128.972,70.485z M127.553,101.261l0.05-1.067
			c0.153,1.636,0.692,2.801,0.413,4.058c-0.172,0.648-0.355,0.123-0.52-0.466v-2.519
			C127.516,101.265,127.531,101.269,127.553,101.261z M127.496,87.352v-1.948C127.788,86.112,127.658,86.694,127.496,87.352z
			 M127.496,70.535v-1.835c0.132,0.183,0.26,0.407,0.375,0.73C127.785,70.203,127.654,70.462,127.496,70.535z"/>
		<path d="M11.884,39.497c0.036,0.034,0.067,0.042,0.099,0.038C11.951,39.503,11.92,39.485,11.884,39.497z"/>
		<path d="M11.823,45.858c-0.005-0.148-0.011-0.318-0.019-0.544C11.813,45.54,11.818,45.717,11.823,45.858z"/>
		<path d="M129.063,102.018c0.103-0.194,0.359-0.681,0.384-0.97l-0.232-0.289L129.063,102.018z"/>
		<path d="M130.186,79.086l-0.203,1.838C130.186,81.505,130.546,79.374,130.186,79.086z"/>
		<path d="M130.235,74.148c-0.462-0.572,0.204-1.839-0.231-2.217C130.133,72.414,129.773,74.058,130.235,74.148z"/>
		<path d="M128.927,64.293c0.329,0.093,0.307,0.869,0.229,1.74c-0.103-0.292-0.256-0.483-0.307-0.871
			c0.256,1.451,0.204,1.55,0.358,2.71c0.23-1.161,0.381-2.905,0.792-2.718C129.691,64.293,129.231,63.226,128.927,64.293z"/>
		<path d="M129.818,58.966l-0.178,0.584c0.308,1.355,0.154,3.095,0.641,3.86C130.256,61.773,130.05,59.741,129.818,58.966z"/>
		<path d="M129.513,30.35c0.191,0.293,0.488-1.741,0.261-0.58C129.542,29.478,129.256,31.002,129.513,30.35z"/>
		<path d="M15.021,14.438c1.111-1.012,0.362-0.617,1.18-1.378c-0.599,0.349-1.019,0.709-1.221,0.974
			C14.771,14.293,14.771,14.441,15.021,14.438z"/>
		<path d="M13.934,15.767l-0.241,0.044c0,0-0.185,0.143-0.37,0.285c-0.18,0.148-0.35,0.311-0.35,0.311s0.225-0.184,0.474-0.338
			C13.689,15.918,13.934,15.767,13.934,15.767z"/>
		<path d="M11.062,24.014c-0.054-0.051-0.111-0.227-0.146-0.411C10.961,23.989,11.008,24.316,11.062,24.014z"/>
		<path d="M11.001,22.961l-0.18-0.077c0.028,0.11,0.05,0.322,0.073,0.525C10.881,23.225,10.905,23.031,11.001,22.961z"/>
		<path d="M11.513,24.759c-0.251-1.35-0.263,1.537-0.808,0.207l0.296,1.092L11.513,24.759z"/>
		<path d="M11.144,30.582c-0.166,1.24,0.638,3.027,0.035,3.73c0.317,3.511,1.008-0.811,1.237,3.207
			c0.312-3.797-1.166-1.93-0.83-5.301C11.211,33.847,11.288,31.125,11.144,30.582z"/>
		<path d="M12.16,29.984c-0.303-0.202-0.33,1.373-0.127,1.863C12.066,31.39,12.49,30.6,12.16,29.984z"/>
		<polygon points="11.416,37.445 11.182,38.519 11.376,38.8 		"/>
		<path d="M11.295,41.517l-0.352-1.045C11.08,40.816,11.053,42.383,11.295,41.517z"/>
		<path d="M11.372,46.985l-0.032,0.473c-0.126-0.123-0.411,0.995-0.483-0.271C10.737,48.171,11.549,49.062,11.372,46.985z"/>
		<path d="M12.131,60.307c0.018-0.677-0.086-1.477-0.254-1.336l0.165,1.856L12.131,60.307z"/>
		<path d="M14.104,60.033c0.493-0.624-0.041-1.74,0.123-2.973C14.133,58.46,14.063,58.293,14.104,60.033z"/>
		<path d="M11.43,62.427c-0.203-0.501-0.071-1.276-0.039-1.742C11.109,60.914,11.182,62.189,11.43,62.427z"/>
		<path d="M11.6,65.386c-0.201,0.606-0.275-0.133-0.412,0.324c-0.224,1.301-0.193,2.667,0.079,3.407
			c0.21-0.343,0.78-0.811,1.029-0.274c-0.175-2.077-1.091-3.139-0.387-4.151l-0.859-1.735C10.91,64.618,11.651,64.233,11.6,65.386z"
			/>
		<path d="M13.366,63.512c0.628-0.292-0.096-1.69-0.133-2.324l-0.287,1.112C13.226,62.077,13.274,62.921,13.366,63.512z"/>
		<polygon points="11.979,76.903 12.123,79.263 12.158,78.496 		"/>
		<polygon points="11.776,78.417 11.596,78.478 11.93,80.283 		"/>
		<polygon points="11.591,80.61 11.434,79.22 11.563,80.889 		"/>
		<path d="M11.574,83.697c0.122,0.52,0.077,1.76-0.133,2.113l0.264-0.434C11.635,84.779,11.933,83.582,11.574,83.697z"/>
		<path d="M122.438,128.142c-0.104,0.195,0.207,0.24,0.542,0.241C124.181,127.63,122.588,128.164,122.438,128.142z"/>
		<path d="M122.438,128.142c0.006-0.012,0-0.019,0.009-0.031C122.417,128.13,122.421,128.139,122.438,128.142z"/>
	</g>
	<g>
		<g>
			<path fill-rule="evenodd" clip-rule="evenodd" fill="#FFFFFF" d="M109.626,46.441c-0.055,0.21-0.128,0.392-0.144,0.58
				c-0.038,0.439,0.075,0.583,0.51,0.693c0.768,0.203,1.544,0.392,2.313,0.597c0.833,0.222,1.387,0.759,1.705,1.549
				c0.367,0.929,0.582,1.896,0.617,2.894c0.078,2.136-1.027,3.209-2.809,3.707c-0.497,0.141-1.03,0.172-1.598,0.259
				c-0.058,0.281-0.123,0.601-0.191,0.919c-0.037,0.177-0.078,0.352-0.118,0.528c-0.237,1.102-0.832,1.953-1.797,2.54
				c-0.438,0.264-0.874,0.528-1.313,0.794c-0.1,0.062-0.197,0.125-0.313,0.201c0.4,1.328,1.182,2.275,2.523,2.671
				c0.485,0.144,0.995,0.224,1.502,0.271c0.702,0.066,1.412,0.066,2.117,0.118c0.462,0.036,0.934,0.078,1.38,0.189
				c0.849,0.205,1.174,0.846,0.915,1.684c-0.03,0.087-0.066,0.17-0.087,0.257c-0.113,0.467-0.448,0.637-0.888,0.701
				c-1.067,0.148-2.129,0.002-3.192-0.071c-1.025-0.071-2.028-0.252-3.002-0.578c-1.349-0.451-2.493-1.193-3.282-2.41
				c-0.468-0.717-0.707-1.528-0.885-2.351c-0.306-1.41-0.535-2.834-0.663-4.273c-0.027-0.312-0.08-0.62-0.126-0.972
				c-0.216,0-0.421-0.017-0.628,0.002c-0.403,0.038-0.802,0.099-1.205,0.146c-0.446,0.05-0.879-0.035-1.278-0.219
				c-1.33-0.608-2.233-1.62-2.488-3.061c-0.177-1.005-0.144-2.047,0.246-3.028c0.208-0.523,0.535-0.971,1.002-1.306
				c0.943-0.677,1.974-1.083,3.146-1.083c0.208,0,0.418-0.057,0.625-0.085c0.62-0.087,0.79-0.559,0.778-1.082
				c-0.002-0.208-0.059-0.415-0.099-0.656c-0.087-0.012-0.187-0.04-0.286-0.04c-0.919,0.005-1.837,0.012-2.754,0.017
				c-0.405,0.004-0.813,0.057-1.21,0c-0.738-0.106-1.132-0.887-0.811-1.575c0.379-0.804,1.035-1.241,1.924-1.276
				c1.293-0.05,2.59-0.033,3.877-0.104c2.818-0.155,5.634-0.063,8.447-0.078c0.502,0,0.988,0.087,1.455,0.267
				c0.497,0.191,0.634,0.384,0.647,0.908c0.003,0.148-0.011,0.302,0.003,0.453c0.047,0.486-0.23,0.757-0.623,0.938
				c-0.514,0.241-1.065,0.316-1.622,0.359c-0.479,0.038-0.959,0.07-1.441,0.08C110.228,46.52,109.946,46.47,109.626,46.441z
				 M104.264,50.363c0.813,0.087,1.42,0.748,1.424,1.565c0.003,0.559,0.003,1.116-0.004,1.672c-0.021,1.187-0.046,2.375-0.08,3.561
				c-0.02,0.632,0.047,1.252,0.209,1.863c1.005-0.313,1.573-0.903,1.618-1.834c0.052-1.031,0.021-2.068-0.005-3.105
				c-0.025-0.898-0.12-1.797-0.139-2.698c-0.012-0.809,0.212-1.059,0.99-1.273c0.037-0.01,0.07-0.028,0.144-0.054
				c-1.25-0.927-1.625-2.16-1.337-3.596c-0.563,0-1.097,0-1.677,0c0.021,0.349,0.028,0.646,0.06,0.941
				c0.079,0.738,0.023,1.448-0.433,2.065C104.804,49.783,104.53,50.059,104.264,50.363z M102.849,53.799c0-0.604,0-1.16,0-1.719
				c0-0.42,0.139-0.795,0.398-1.127c0.059-0.073,0.115-0.151,0.207-0.264c-0.115,0.007-0.174,0-0.23,0.014
				c-0.865,0.196-1.727,0.41-2.597,0.585c-0.315,0.063-0.46,0.233-0.549,0.509c-0.158,0.481-0.069,0.953-0.01,1.432
				c0.033,0.262,0.177,0.415,0.41,0.476c0.201,0.054,0.413,0.09,0.621,0.097c0.525,0.014,1.049,0.012,1.575,0.012
				C102.73,53.815,102.789,53.804,102.849,53.799z M109.678,50.644c0.153,0.531,0.347,1.05,0.44,1.583
				c0.097,0.54,0.093,1.097,0.133,1.669c0.144,0.007,0.275,0.023,0.407,0.023c0.133-0.002,0.27-0.002,0.404-0.026
				c0.438-0.084,0.764-0.41,0.804-0.856c0.03-0.342,0.028-0.691-0.012-1.033c-0.028-0.259-0.083-0.535-0.313-0.722
				C111.267,51.066,110.104,50.655,109.678,50.644z"/>
			<path fill-rule="evenodd" clip-rule="evenodd" fill="#FFFFFF" d="M94.533,32.665c-0.888,0.491-1.796,1.005-2.561,1.712
				c-0.48,0.445-0.872,0.993-1.306,1.493c-0.378,0.431-0.743,0.87-1.135,1.285c-0.382,0.401-0.842,0.681-1.401,0.766
				c-0.422,0.064-0.772-0.146-0.917-0.549c-0.136-0.377-0.062-0.743,0.057-1.104c0.422-1.276,1.227-2.29,2.182-3.214
				c1.19-1.155,2.632-1.948,4.004-2.841c0.509-0.333,0.847-0.792,1.009-1.389c0.161-0.599,0.013-1.137-0.324-1.623
				c-0.229-0.334-0.495-0.648-0.765-0.95c-0.47-0.519-0.47-1.134-0.325-1.743c0.162-0.677,0.882-1.021,1.624-0.833
				c0.585,0.146,1.021,0.514,1.361,0.986c0.797,1.116,1.28,2.344,1.249,3.74c-0.025,1.075-0.372,2.033-1.004,2.891
				c-0.054,0.073-0.106,0.141-0.156,0.205c0.029,0.045,0.036,0.08,0.057,0.092c0.71,0.328,1.104,0.922,1.314,1.637
				c0.17,0.592,0.315,1.193,0.396,1.802c0.045,0.36-0.033,0.747-0.095,1.113c-0.042,0.252-0.115,0.505-0.226,0.731
				c-0.238,0.491-0.14,0.922,0.132,1.358c0.165,0.269,0.302,0.554,0.445,0.835c0.361,0.698,0.338,1.459,0.321,2.209
				c-0.012,0.552-0.102,1.106-0.175,1.655c-0.065,0.488-0.307,0.903-0.587,1.302c-0.858,1.2-1.71,2.405-2.55,3.617
				c-0.916,1.323-1.426,2.811-1.669,4.389c-0.224,1.472-0.446,2.943-0.608,4.419c-0.12,1.073-0.278,2.15-0.201,3.235
				c0.058,0.839,0.146,1.676,0.232,2.514c0.061,0.672,0.15,1.342,0.205,2.016c0.049,0.613,0.079,1.229,0.091,1.844
				c0.005,0.203-0.059,0.415-0.12,0.613c-0.167,0.533-0.545,0.816-1.089,0.88c-0.533,0.061-0.948-0.142-1.229-0.59
				c-0.149-0.24-0.298-0.502-0.361-0.776c-0.158-0.684-0.316-1.377-0.389-2.075c-0.13-1.209-0.165-2.429-0.295-3.638
				c-0.134-1.297-0.068-2.58,0.1-3.868c0.181-1.384,0.329-2.771,0.559-4.15c0.212-1.29,0.542-2.554,1.05-3.768
				c0.387-0.927,0.936-1.75,1.513-2.559c0.699-0.979,1.427-1.941,2.1-2.938c0.849-1.266,0.886-2.613,0.275-3.992
				c-0.017-0.04-0.05-0.073-0.099-0.148c-0.17,0.146-0.335,0.29-0.497,0.434c-0.591,0.514-1.173,1.038-1.774,1.538
				c-0.594,0.495-0.994,1.116-1.299,1.816c-0.276,0.634-0.564,1.264-0.896,1.87c-0.311,0.563-0.505,1.153-0.622,1.775
				c-0.069,0.371-0.167,0.733-0.26,1.099c-0.095,0.384-0.269,0.729-0.521,1.04c-0.336,0.424-0.793,0.584-1.305,0.592
				c-0.434,0.005-0.733-0.342-0.837-0.863c-0.156-0.771-0.04-1.525,0.134-2.275c0.451-1.924,1.225-3.707,2.303-5.362
				c0.759-1.163,1.702-2.137,2.857-2.915c0.573-0.387,1.129-0.799,1.686-1.209c0.215-0.161,0.411-0.352,0.616-0.528
				c0.552-0.479,0.597-1.08,0.374-1.719c-0.132-0.382-0.331-0.74-0.474-1.122C94.626,33.198,94.596,32.953,94.533,32.665z"/>
			<path fill-rule="evenodd" clip-rule="evenodd" fill="#FFFFFF" d="M104.811,32.554c-0.033-0.688-0.063-1.33-0.097-1.988
				c-0.493-0.092-0.943,0.071-1.401,0.104c-0.732,0.057-1.461,0.181-2.195,0.203c-0.49,0.012-0.987-0.083-1.469-0.177
				c-0.521-0.099-0.832-0.479-0.997-0.953c-0.063-0.177-0.055-0.432,0.028-0.604c0.34-0.714,0.875-1.139,1.716-1.179
				c1.173-0.052,2.338-0.17,3.507-0.267c0.268-0.023,0.528-0.08,0.802-0.12c0.01-0.078,0.026-0.137,0.026-0.193
				c-0.023-0.915-0.047-1.833-0.071-2.75c-0.011-0.507,0.188-0.941,0.503-1.323c0.432-0.526,1.538-0.625,1.988,0.134
				c0.317,0.538,0.379,1.134,0.42,1.733c0.045,0.674,0.054,1.351,0.082,2.028c0.002,0.085,0.025,0.175,0.047,0.316
				c0.188,0,0.365,0.005,0.543-0.002c1.247-0.033,2.497-0.068,3.744-0.106c0.889-0.026,1.445,0.337,1.695,1.113
				c0.109,0.342,0.059,0.646-0.184,0.924c-0.36,0.406-0.811,0.62-1.347,0.639c-1.068,0.04-2.134,0.057-3.202,0.097
				c-0.406,0.017-0.809,0.068-1.205,0.101c-0.113,0.316-0.137,1.542-0.033,2.085c0.548,0.071,1.11,0.134,1.674,0.214
				c0.937,0.132,1.868,0.295,2.767,0.613c0.837,0.297,1.34,0.879,1.585,1.717c0.202,0.705,0.225,1.417,0.115,2.141
				c-0.068,0.446-0.087,0.896-0.122,1.346c-0.071,1.031-0.441,1.962-0.956,2.837c-0.209,0.354-0.552,0.547-0.919,0.703
				c-0.642,0.269-1.313,0.422-2.002,0.519c-1.281,0.182-2.568,0.288-3.862,0.29c-0.753,0-1.505,0.063-2.255,0.05
				c-0.75-0.015-1.505-0.055-2.233-0.252c-0.667-0.179-1.299-0.432-1.672-1.063c-0.453-0.771-0.773-1.606-0.854-2.498
				c-0.082-0.896-0.104-1.804-0.1-2.705c0.006-0.429,0.078-0.87,0.194-1.285c0.214-0.771,0.695-1.323,1.471-1.592
				c0.927-0.321,1.887-0.493,2.852-0.644C103.855,32.691,104.315,32.627,104.811,32.554z M106.697,39.582
				c0.557,0.165,1.052,0.144,1.605,0.104c-0.497-1.549-0.967-3.028-1.457-4.561c-0.572,0.047-1.12,0.094-1.727,0.146
				C105.662,36.75,106.186,38.179,106.697,39.582z M103.952,39.721c-0.532-1.382-1.038-2.69-1.55-4.018c-0.114,0-0.244,0-0.402,0
				c-0.09,0.196-0.21,0.375-0.263,0.573c-0.273,1.047-0.094,2.049,0.329,3.026c0.12,0.285,0.348,0.405,0.637,0.417
				C103.092,39.73,103.479,39.721,103.952,39.721z M110.739,38.997c0.238-0.193,0.427-0.333,0.429-0.585
				c0.005-0.807,0.073-1.62-0.152-2.41c-0.211-0.724-0.798-1.026-1.576-0.794C109.867,36.453,110.291,37.697,110.739,38.997z"/>
		</g>
		<g>
			<path fill-rule="evenodd" clip-rule="evenodd" fill="#FFFFFF" d="M99.752,81.259c0-0.205,0.007-0.352-0.002-0.5
				c-0.023-0.602-0.05-1.2-0.075-1.801c-0.053-1.309-0.135-2.613-0.145-3.92c-0.002-0.625,0.022-1.264,0.308-1.855
				c0.204-0.432,0.523-0.719,0.997-0.729c0.515-0.007,0.896,0.269,1.07,0.754c0.111,0.309,0.224,0.635,0.238,0.955
				c0.054,1.172,0.073,2.347,0.094,3.519c0.015,1.009,0.01,2.017,0.017,3.028c0.003,0.132,0.017,0.264,0.034,0.432
				c0.186,0.007,0.344,0.023,0.507,0.023c1.554-0.015,3.093,0.08,4.622,0.375c0.739,0.144,1.464,0.349,2.129,0.717
				c0.475,0.26,0.845,0.607,1.097,1.096c0.687,1.316,1.059,2.701,1.101,4.191c0.175,6.381,0.031,12.767,0.093,19.148
				c0.007,0.867,0.125,1.737,0.202,2.603c0.069,0.75,0.155,1.495,0.233,2.24c0.075,0.745,0.142,1.495,0.233,2.24
				c0.06,0.458,0.017,0.898-0.092,1.342c-0.005,0.028-0.019,0.057-0.03,0.085c-0.354,0.894-0.981,1.052-1.818,0.67
				c-0.337-0.156-0.58-0.439-0.705-0.793c-0.101-0.295-0.18-0.604-0.233-0.912c-0.055-0.326-0.065-0.656-0.088-0.986
				c-0.067-1.141-0.132-2.282-0.202-3.421c-0.055-0.87-0.08-1.743-0.187-2.608c-0.167-1.367-0.049-2.735-0.07-4.104
				c-0.019-1.127,0.012-2.256,0.014-3.386c0.02-4.214,0.038-8.431,0.059-12.645c0.005-0.726-0.153-1.405-0.601-1.99
				c-0.375-0.493-0.823-0.878-1.472-0.955c-0.342-0.04-0.682-0.122-1.026-0.132c-1.247-0.045-2.497-0.082-3.744-0.085
				c-0.932-0.003-1.865,0.021-2.795,0.083c-1.572,0.102-3.155,0.129-4.706,0.44c-0.512,0.102-0.977,0.295-1.387,0.615
				c-0.525,0.408-0.735,0.932-0.653,1.587c0.04,0.312,0.059,0.63,0.062,0.943c0.042,4.471,0.095,8.939,0.108,13.411
				c0.002,1.217-0.108,2.431-0.17,3.646c-0.033,0.617-0.063,1.233-0.105,1.849c-0.08,1.155-0.153,2.309-0.262,3.46
				c-0.1,1.016-0.238,2.027-0.371,3.039c-0.04,0.295-0.117,0.59-0.203,0.877c-0.179,0.586-0.695,0.99-1.304,1.021
				c-0.931,0.052-1.068-0.021-1.118-1.007c-0.042-0.762,0.043-1.53,0.088-2.297c0.033-0.54,0.104-1.075,0.139-1.615
				c0.076-1.125,0.13-2.252,0.205-3.377c0.078-1.108,0.193-2.214,0.248-3.325c0.064-1.337,0.085-2.674,0.116-4.014
				c0.034-1.58,0.065-3.16,0.099-4.737c0.012-0.632,0.059-1.261,0.049-1.894c-0.016-1.852-0.027-3.702-0.089-5.551
				c-0.038-1.273,0.316-2.436,0.854-3.561c0.23-0.488,0.613-0.85,1.095-1.102c0.851-0.448,1.775-0.656,2.714-0.807
				c1.426-0.227,2.867-0.299,4.313-0.283C99.38,81.259,99.53,81.259,99.752,81.259z"/>
			<path fill-rule="evenodd" clip-rule="evenodd" fill="#FFFFFF" d="M102.464,95.962c0,1.068,0,2.1,0,3.158
				c0.425,0.045,0.828,0.092,1.227,0.129c0.688,0.066,1.38,0.098,2.063,0.198c0.332,0.048,0.655,0.198,0.967,0.337
				c0.267,0.123,0.387,0.371,0.398,0.663c0.005,0.137-0.01,0.273,0.01,0.405c0.059,0.475-0.189,0.762-0.602,0.883
				c-0.415,0.127-0.844,0.23-1.273,0.252c-0.955,0.047-1.915,0.035-2.884,0.049c0,1.211,0,2.467,0,3.77
				c0.182,0.014,0.342,0.029,0.502,0.037c1.052,0.035,2.106,0.057,3.157,0.111c0.479,0.023,0.958,0.096,1.432,0.176
				c0.581,0.102,0.977,0.423,1.127,1.023c0.166,0.656-0.137,1.172-0.792,1.305c-0.089,0.019-0.179,0.035-0.269,0.04
				c-0.465,0.028-0.932,0.075-1.396,0.073c-1.969-0.021-3.942-0.017-5.914-0.106c-1.025-0.044-2.035,0.021-3.054,0.104
				c-0.903,0.074-1.804,0.101-2.705,0.117c-0.837,0.017-1.101-0.375-1.311-1.104c-0.033-0.115-0.007-0.271,0.047-0.385
				c0.255-0.547,0.682-0.914,1.262-1.08c0.315-0.087,0.646-0.158,0.974-0.17c1.262-0.049,2.525-0.077,3.79-0.113
				c0.16-0.004,0.322,0,0.512,0c0-1.379,0-2.711,0-4.055c-0.802,0.061-1.59,0.152-2.379,0.174c-0.659,0.02-1.321-0.031-1.981-0.08
				c-0.363-0.028-0.608-0.236-0.667-0.623c-0.021-0.132-0.066-0.262-0.083-0.394c-0.071-0.599,0.13-0.94,0.688-1.175
				c0.679-0.279,1.396-0.372,2.112-0.424c0.738-0.057,1.475-0.076,2.211-0.113c0.084-0.004,0.172-0.028,0.284-0.045
				c-0.059-1.049-0.115-2.075-0.174-3.117c-0.488-0.045-0.951-0.07-1.405-0.137c-0.693-0.1-1.338-0.335-1.908-0.758
				c-0.792-0.589-1.207-1.404-1.452-2.326c-0.138-0.526-0.198-1.063-0.191-1.609c0.012-1.292-0.02-2.589,0.021-3.883
				c0.012-0.473,0.137-0.949,0.267-1.41c0.127-0.453,0.469-0.768,0.88-0.984c0.561-0.299,1.059-0.127,1.261,0.477
				c0.135,0.408,0.195,0.844,0.243,1.275c0.038,0.357,0.007,0.717,0.007,1.116c2.33-0.247,4.624-0.165,6.973-0.05
				c0.01-0.332,0.02-0.627,0.029-0.922c0.019-0.54,0.17-1.033,0.485-1.477c0.429-0.61,1.146-0.688,1.705-0.174
				c0.401,0.372,0.547,0.854,0.547,1.384c0.012,1.009-0.004,2.019,0.019,3.028c0.028,1.117-0.097,2.219-0.375,3.301
				c-0.063,0.262-0.158,0.517-0.255,0.771c-0.37,0.979-1.139,1.533-2.075,1.872c-0.49,0.177-1.016,0.257-1.525,0.378
				C102.817,95.899,102.644,95.927,102.464,95.962z M104.631,90.261c-0.934-0.048-1.802-0.096-2.672-0.131
				c-0.596-0.023-1.2-0.057-1.796-0.035c-0.809,0.031-1.613,0.111-2.423,0.17c-0.115,0.008-0.23,0.023-0.336,0.033
				c-0.146,0.818-0.008,1.545,0.409,2.23c0.161,0.26,0.354,0.46,0.633,0.545c0.313,0.097,0.642,0.187,0.962,0.205
				c1.224,0.076,2.426-0.08,3.627-0.277c0.754-0.123,1.217-0.529,1.34-1.295c0.002-0.018,0.006-0.029,0.006-0.045
				C104.467,91.192,104.549,90.722,104.631,90.261z"/>
			<path fill-rule="evenodd" clip-rule="evenodd" fill="#FFFFFF" d="M103.67,76.666c0.017-1.301,0.336-2.398,1.084-3.339
				c0.193-0.245,0.434-0.464,0.688-0.637c0.333-0.224,0.675-0.182,0.937,0.122c0.219,0.26,0.398,0.566,0.53,0.878
				c0.063,0.157,0.005,0.382-0.042,0.565c-0.055,0.201-0.145,0.395-0.241,0.583c-0.347,0.675-0.392,1.37-0.2,2.099
				c0.139,0.528,0.153,0.585,0.691,0.68c0.367,0.061,0.742,0.099,1.117,0.119c0.783,0.043,1.564,0.051,2.345,0.107
				c0.386,0.029,0.773,0.112,1.15,0.207c0.533,0.135,0.8,0.557,1,1.025c0.035,0.076,0.047,0.184,0.017,0.26
				c-0.25,0.639-0.588,1.167-1.42,1.264c-1.08,0.127-2.125-0.066-3.174-0.24c-0.738-0.123-1.475-0.293-2.188-0.517
				C104.42,79.354,103.721,78.289,103.67,76.666z"/>
			<path fill-rule="evenodd" clip-rule="evenodd" fill="#FFFFFF" d="M90.695,81.613c-0.293-0.037-0.592-0.054-0.885-0.113
				c-0.285-0.057-0.437-0.256-0.423-0.557c0.013-0.235,0.017-0.479,0.063-0.714c0.101-0.497,0.405-0.818,0.897-0.97
				c0.92-0.285,1.835-0.582,2.75-0.872c0.465-0.144,0.91-0.337,1.275-0.655c0.257-0.227,0.484-0.496,0.675-0.778
				c0.167-0.253,0.19-0.535,0.094-0.856c-0.195-0.631-0.342-1.275-0.492-1.917c-0.023-0.106,0.007-0.243,0.052-0.347
				c0.075-0.16,0.175-0.316,0.286-0.455c0.421-0.549,1.029-0.605,1.518-0.12c0.21,0.208,0.405,0.452,0.53,0.722
				c0.854,1.882,0.668,4.15-0.987,5.678c-0.269,0.253-0.594,0.468-0.927,0.628c-1.125,0.55-2.297,0.974-3.523,1.226
				C91.306,81.574,91.004,81.58,90.695,81.613z"/>
		</g>
		<g>
			<path fill-rule="evenodd" clip-rule="evenodd" fill="#FFFFFF" d="M62.156,39.436c0.137,0.71,0.227,1.37,0.401,2.004
				c0.172,0.651,0.358,0.785,1.061,0.754c1.095-0.044,2.188-0.163,3.285-0.231c1.762-0.106,3.538-0.349,5.289-0.264
				c2.653,0.13,4.22,1.634,4.65,4.226c0.337,2.028,0.255,4.077,0.048,6.117c-0.064,0.606-0.123,1.212-0.191,1.818
				c-0.173,1.507-1.035,2.589-2.217,3.431c-1.04,0.74-2.198,1.153-3.506,1.169c-1.771,0.019-3.543,0.057-5.309,0.188
				c-0.805,0.062-1.632,0.274-2.372,0.595c-0.925,0.403-1.375,1.235-1.493,2.296c0.222,0.042,0.389,0.092,0.563,0.102
				c1.552,0.073,3.115,0.073,4.659,0.215c2.513,0.226,4.941,0.717,7.061,2.245c2.432,1.75,4.11,4.059,5.292,6.771
				c0.094,0.222,0.163,0.464,0.201,0.705c0.181,1.217-0.755,2.158-1.967,2.023c-1.041-0.12-1.923-0.499-2.658-1.288
				c-0.89-0.967-1.879-1.837-2.767-2.806c-0.747-0.816-1.657-1.334-2.674-1.7c-1.534-0.552-3.134-0.776-4.747-0.929
				c-1.056-0.099-2.12-0.127-3.301-0.193c-0.133,1.014-0.255,1.962-0.39,3.016c0.967,0.071,1.87,0.153,2.769,0.203
				c1.773,0.099,3.521,0.333,5.214,0.882c1.187,0.379,2.25,0.979,3.162,1.807c2.821,2.574,5.146,5.546,6.94,8.923
				c0.212,0.401,0.363,0.842,0.526,1.269c0.454,1.174-0.536,2.367-1.703,2.271c-1.146-0.098-2.067-0.458-2.747-1.395
				c-0.725-0.985-1.5-1.936-2.191-2.939c-1.049-1.515-2.419-2.656-3.959-3.621c-1.745-1.086-3.528-2.082-5.537-2.586
				c-0.462-0.118-0.967-0.14-1.448-0.113c-0.559,0.027-0.916,0.36-0.984,0.912c-0.051,0.443-0.005,0.908,0.049,1.355
				c0.038,0.268,0.196,0.515,0.25,0.783c0.05,0.236,0.04,0.484,0.063,0.863c0.649,0.13,1.323,0.264,1.991,0.403
				c2.501,0.509,4.925,1.198,7.024,2.737c1.561,1.148,2.929,2.508,4.124,4.017c1.326,1.675,2.561,3.419,3.787,5.169
				c0.717,1.037,1.245,2.182,1.3,3.474c0.016,0.545,0,1.106-0.118,1.63c-0.165,0.719-0.691,1.063-1.427,1.016
				c-0.849-0.054-1.644-0.357-2.216-0.974c-0.762-0.827-1.453-1.722-2.12-2.632c-0.946-1.275-1.805-2.615-2.753-3.887
				c-2.157-2.902-4.973-4.828-8.513-5.661c-0.075-0.019-0.168,0.009-0.29,0.017c0.097,1.514,0.405,2.964,0.892,4.374
				c0.23,0.673,0.622,1.241,1.125,1.757c2.181,2.227,4.389,4.432,6.482,6.734c0.849,0.938,1.516,2.066,2.124,3.187
				c1.586,2.9,2.953,5.897,3.679,9.149c0.383,1.717,0.453,3.443,0.095,5.174c-0.035,0.18-0.104,0.354-0.153,0.528
				c-0.445,1.535-1.69,1.5-2.589,0.96c-0.645-0.389-1.104-0.915-1.326-1.677c-0.719-2.427-1.449-4.851-2.235-7.261
				c-1.011-3.113-2.716-5.777-5.249-7.902c-1.381-1.155-2.702-2.384-4.027-3.601c-2.585-2.372-3.86-5.36-4.115-8.817
				c-0.191-2.525-0.373-5.049-0.568-7.574c-0.087-1.094-0.215-2.184-0.304-3.275c-0.036-0.412-0.156-0.823,0.222-1.2
				c0.137-0.135,0.072-0.521,0.019-0.776c-0.205-0.952-0.432-1.9-0.668-2.848c-0.304-1.222-0.092-2.441,0.079-3.639
				c0.421-2.964,1.221-5.846,2.129-8.694c0.48-1.5,1.23-2.792,2.692-3.552c0.918-0.476,1.918-0.62,2.915-0.703
				c1.918-0.156,3.839-0.243,5.751-0.389c0.449-0.033,0.904-0.146,1.341-0.276c0.976-0.29,1.851-1.703,1.07-2.818
				c-0.281-0.401-0.517-0.833-0.81-1.222c-0.743-1.009-1.775-1.431-3.011-1.462c-1.738-0.049-3.483-0.071-5.212-0.215
				c-0.868-0.073-1.735-0.332-2.567-0.608c-0.717-0.238-1.213-0.794-1.562-1.476c-0.785-1.544-1.271-3.167-1.335-4.907
				c-0.01-0.212-0.023-0.427-0.049-0.637c-0.015-0.087-0.069-0.167-0.146-0.339c-0.132,0.212-0.222,0.377-0.328,0.538
				c-0.453,0.709-1.129,1.009-1.938,1.028c-1.28,0.026-2.557,0.026-3.834,0.038c-0.148,0.002-0.3,0.017-0.545,0.026
				c-0.012,0.342-0.045,0.667-0.035,0.99c0.035,1.785-0.338,3.519-0.637,5.261c-0.25,1.419-1.125,2.342-2.36,2.957
				c-0.656,0.325-1.344,0.568-2.08,0.87c0,1.061,0,2.146,0,3.341c1.634-0.233,3.32-0.151,4.449-1.676
				c0.55-0.741,0.765-1.585,0.893-2.469c0.134-0.964,0.234-1.936,0.389-2.9c0.17-1.085,0.912-1.762,1.784-2.297
				c0.456-0.278,0.951-0.08,1.267,0.238c0.415,0.424,0.778,0.936,1.038,1.471c0.217,0.458,0.315,0.995,0.354,1.507
				c0.14,2.144,0.009,4.264-0.663,6.332c-0.546,1.662-1.567,2.867-3.138,3.636c-2.05,1.002-4.214,1.578-6.514,1.823
				c-0.245,0.604-0.113,1.181,0.146,1.818c0.452,0.137,0.947,0.278,1.438,0.437c3.894,1.285,6.235,3.988,7.3,7.902
				c0.454,1.667,0.662,3.375,0.65,5.071c-0.028,3.188-0.411,6.334-1.946,9.223c-0.574,1.092-1.344,2.035-2.251,2.869
				c-1.099,1.017-2.198,2.031-3.312,3.03c-1.372,1.229-2.32,2.762-3.037,4.422c-0.618,1.425-1.191,2.884-1.627,4.372
				c-0.608,2.077-0.51,4.229-0.34,6.367c0.013,0.182,0.063,0.363,0.068,0.545c0.081,2.836,0.182,5.676,0.222,8.518
				c0.005,0.589-0.177,1.197-0.354,1.775c-0.173,0.582-0.668,0.891-1.245,0.94c-1.059,0.093-2.285-0.184-2.889-1.335
				c-0.512-0.985-0.922-2.012-1.06-3.105c-0.32-2.514-0.506-5.037-0.251-7.576c0.079-0.788-0.005-1.59,0.049-2.383
				c0.144-2.064,0.259-4.138,0.517-6.191c0.309-2.437,1.545-4.479,3.061-6.355c0.573-0.71,1.195-1.379,1.849-2.117
				c-0.162,0-0.28-0.035-0.377,0.002c-0.743,0.297-1.208-0.059-1.63-0.627c-1.235-1.668-2.467-3.34-3.751-4.967
				c-0.383-0.486-0.938-0.834-1.53-1.34c-0.041,0.406-0.086,0.635-0.086,0.863c-0.009,1.713,0.036,3.427-0.019,5.137
				c-0.032,0.936-0.215,1.872-0.347,2.806c-0.035,0.238-0.135,0.47-0.227,0.696c-0.472,1.115-0.942,1.432-2.08,1.424
				c-1.089-0.007-1.921-0.463-2.292-1.492c-0.232-0.651-0.4-1.371-0.387-2.055c0.06-2.924,0.196-5.85,0.313-8.777
				c0.073-1.839,0.413-3.633,0.922-5.396c1.125-3.946,3.415-7.118,6.54-9.733c1.005-0.842,2.016-1.674,2.982-2.561
				c0.677-0.625,0.813-1.375,0.097-2.278c-0.299,0-0.659-0.005-1.023,0c-1.476,0.021-2.924-0.184-4.341-0.566
				c-1.604-0.429-2.847-1.311-3.587-2.879c-0.896-1.905-1.521-3.86-1.387-5.994c0.059-0.986,0.278-1.924,0.833-2.769
				c0.386-0.589,0.844-1.174,1.589-1.031c0.849,0.167,1.613,0.635,1.894,1.54c0.218,0.698,0.337,1.424,0.5,2.137
				c0.073,0.328,0.144,0.655,0.205,0.985c0.427,2.292,1.91,2.943,3.709,3.169c0.51,0.064,1.031,0.01,1.677,0.01
				c0.022-0.505,0.031-0.981,0.064-1.453c0.03-0.483,0.084-0.964,0.129-1.48c-0.662-0.095-1.296-0.153-1.914-0.29
				c-0.474-0.104-0.932-0.286-1.382-0.47c-0.75-0.306-1.208-0.889-1.493-1.644c-0.455-1.217-0.623-2.483-0.667-3.764
				c-0.048-1.28-0.01-2.561-0.01-3.851c-1.035,0-2,0.017-2.962-0.007c-0.727-0.019-1.462-0.066-2.184-0.163
				c-0.283-0.035-0.592-0.186-0.795-0.379c-0.877-0.842-0.627-2.663,0.434-3.252c1.114-0.618,2.364-0.823,3.599-1
				c2.597-0.368,5.214-0.544,7.844-0.58c3.909-0.052,7.814-0.137,11.725-0.179c0.696-0.007,1.406,0.083,2.085,0.217
				c0.974,0.189,1.744,0.708,2.207,1.651c-0.063-1.208-0.108-2.386-0.188-3.563c-0.22-3.056,0.099-6.032,1.349-8.86
				c0.208-0.469,0.486-0.929,0.825-1.311c0.923-1.038,2.37-0.762,2.87,0.523c0.559,1.446,0.722,2.915,0.495,4.474
				c-0.217,1.495-0.422,3.014-0.191,4.657c0.563,0,1.104,0.019,1.645-0.002c1.099-0.054,2.194-0.123,3.289-0.196
				c1.267-0.083,2.144-0.816,2.865-1.766c0.735-0.972,1.139-2.056,1.235-3.29c0.104-1.363,0.309-2.724,0.541-4.073
				c0.072-0.431,0.309-0.868,0.577-1.221c0.82-1.092,2.252-0.778,2.802,0.106c0.299,0.483,0.572,1.038,0.658,1.592
				c0.226,1.507,0.342,3.033,0.122,4.561c-0.153,1.085-0.217,2.188-0.458,3.254c-0.485,2.15-1.648,3.865-3.593,4.971
				c-1.217,0.693-2.57,0.981-3.941,1.09c-1.608,0.129-3.23,0.144-4.841,0.209C62.741,39.384,62.505,39.407,62.156,39.436z
				 M35.997,75.579c0.104,0.113,0.222,0.25,0.345,0.38c1.617,1.667,3.271,3.295,4.842,5.006c1.44,1.573,2.279,3.385,1.771,5.605
				c-0.059,0.255-0.007,0.535-0.007,0.826c1.82-1.416,4.539-4.424,5.204-5.99c0.198-0.477,0.408-0.96,0.517-1.462
				c0.54-2.425,0.781-4.877,0.392-7.353c-0.187-1.182-0.496-2.33-1.21-3.328c-0.889-1.24-2.07-1.87-3.622-1.667
				c-1.028,0.132-1.936,0.587-2.872,1.179c3.57,1.677,5.556,4.523,6.576,8.128c0.348,1.215,0.496,2.455,0.147,3.7
				c-0.191,0.688-0.541,1.179-1.319,1.351c-0.789,0.173-1.324-0.134-1.726-0.721c-0.722-1.059-1.42-2.135-2.085-3.229
				c-1.03-1.707-2.15-3.337-3.646-4.679c-0.535-0.479-1.112-0.91-1.672-1.368C36.875,72.992,36.262,74.372,35.997,75.579z
				 M39.671,41.431c-0.294,0.627-0.584,1.226-0.376,1.931c0.155,0.519,0.405,1.026,0.464,1.556c0.063,0.627,0.38,1.019,0.875,1.295
				c0.691,0.387,1.394,0.757,2.112,1.087c1.253,0.576,2.135,0.163,2.488-1.191c0.358-1.365,0.387-2.769,0.354-4.171
				c-0.005-0.231-0.05-0.46-0.07-0.682C43.527,41.315,41.619,41.372,39.671,41.431z"/>
			<path fill-rule="evenodd" clip-rule="evenodd" fill="#FFFFFF" d="M53.98,30.63c0.012,0.802-0.647,1.453-1.252,1.908
				c-0.515,0.387-1.177,0.538-1.809,0.573c-1.43,0.083-2.86,0.137-4.297,0.175c-3.174,0.084-6.348,0.163-9.518,0.224
				c-1.217,0.021-2.434,0.017-3.652-0.019c-1.188-0.033-1.635-0.453-2.002-1.509c-0.29-0.833,0.222-2.108,0.945-2.573
				c0.991-0.639,2.094-0.835,3.219-0.92c4.66-0.356,9.329-0.441,13.998-0.41c0.545,0.005,1.09,0.087,1.634,0.153
				c0.645,0.078,1.253,0.337,1.739,0.771c0.438,0.389,0.884,0.816,0.978,1.424C53.974,30.496,53.98,30.562,53.98,30.63z"/>
		</g>
	</g>
</g>
</svg>
